<?xml version="1.0" encoding="utf-8"?>
<!-- Generator: Adobe Illustrator 16.0.0, SVG Export Plug-In . SVG Version: 6.00 Build 0)  -->
<!DOCTYPE svg PUBLIC "-//W3C//DTD SVG 1.1//EN" "http://www.w3.org/Graphics/SVG/1.1/DTD/svg11.dtd">
<svg version="1.1" id="Layer_1" xmlns="http://www.w3.org/2000/svg" xmlns:xlink="http://www.w3.org/1999/xlink" x="0px" y="0px"
	 width="70px" height="70px" viewBox="0 0 70 70" enable-background="new 0 0 70 70" xml:space="preserve">
<path fill="none" stroke="#0B88CA" stroke-miterlimit="10" d="M69.477,66.196c0,1.657-1.343,3-3,3H3.625c-1.656,0-3-1.343-3-3V3.805
	c0-1.657,1.344-3,3-3h62.852c1.657,0,3,1.343,3,3V66.196z"/>
<g>
	<path fill="#0088CC" d="M41.241,27.708h-3.377c-0.354-1.985-2.058-3.514-4.104-3.514c-2.049,0-3.752,1.528-4.104,3.514h-1.083
		v0.007h-2.455c-0.316,0-0.576,0.263-0.576,0.584v11.153c0,1.504,1.201,2.729,2.684,2.729h10.908c1.477,0,2.684-1.223,2.684-2.729
		v-11.16C41.814,27.971,41.559,27.708,41.241,27.708z M33.76,25.381c1.401,0,2.57,1,2.902,2.327h-5.807
		C31.189,26.381,32.358,25.381,33.76,25.381z M40.667,39.451c0,0.859-0.688,1.561-1.534,1.561H28.225
		c-0.846,0-1.534-0.701-1.534-1.561V28.876h1.88h0.831h0.182v2.627h1.166v-2.627h6.018v2.627h1.166v-2.627h2.732L40.667,39.451
		L40.667,39.451z"/>
</g>
<circle fill="#0088CC" cx="41.283" cy="28.277" r="5.75"/>
<g>
	<path fill="#FFFFFF" d="M42.275,25.473c0.264,0.131,0.465,0.31,0.604,0.536c0.139,0.226,0.208,0.484,0.208,0.772
		c0,0.314-0.088,0.591-0.265,0.828c-0.176,0.238-0.402,0.399-0.68,0.484v0.04c0.325,0.09,0.582,0.267,0.768,0.528
		c0.188,0.261,0.281,0.595,0.281,1c0,0.304-0.071,0.579-0.213,0.824c-0.142,0.245-0.352,0.438-0.629,0.58
		c-0.276,0.142-0.609,0.212-1,0.212c-0.555,0-1.013-0.145-1.375-0.433c-0.363-0.288-0.563-0.696-0.601-1.224h0.688
		c0.026,0.304,0.152,0.553,0.381,0.748c0.227,0.195,0.524,0.292,0.898,0.292c0.378,0,0.668-0.1,0.868-0.3
		c0.199-0.2,0.3-0.458,0.3-0.772c0-0.421-0.134-0.72-0.398-0.896c-0.269-0.176-0.676-0.264-1.226-0.264h-0.19v-0.608h0.199
		c1.002-0.011,1.504-0.333,1.504-0.968c0-0.293-0.094-0.525-0.283-0.696c-0.189-0.171-0.463-0.256-0.82-0.256
		c-0.326,0-0.587,0.079-0.784,0.236c-0.196,0.157-0.317,0.367-0.36,0.628h-0.702c0.042-0.464,0.235-0.828,0.579-1.092
		c0.345-0.264,0.773-0.396,1.291-0.396C41.691,25.277,42.011,25.342,42.275,25.473z"/>
</g>
</svg>
