<?xml version="1.0" encoding="utf-8"?>
<!-- Generator: Adobe Illustrator 16.0.0, SVG Export Plug-In . SVG Version: 6.00 Build 0)  -->
<!DOCTYPE svg PUBLIC "-//W3C//DTD SVG 1.1//EN" "http://www.w3.org/Graphics/SVG/1.1/DTD/svg11.dtd">
<svg version="1.1" id="Layer_1" xmlns="http://www.w3.org/2000/svg" xmlns:xlink="http://www.w3.org/1999/xlink" x="0px" y="0px"
	 width="70px" height="70px" viewBox="0 0 70 70" enable-background="new 0 0 70 70" xml:space="preserve">
<path fill="none" stroke="#0B88CA" stroke-miterlimit="10" d="M69.426,66.195c0,1.656-1.344,3-3,3H3.574c-1.656,0-3-1.344-3-3V3.805
	c0-1.657,1.344-3,3-3h62.852c1.656,0,3,1.343,3,3V66.195z"/>
<g>
	<path fill="#FFFFFF" d="M42.275,25.473c0.264,0.131,0.465,0.31,0.604,0.536c0.139,0.226,0.208,0.484,0.208,0.772
		c0,0.314-0.088,0.591-0.265,0.828c-0.176,0.238-0.402,0.399-0.68,0.484v0.04c0.325,0.09,0.582,0.267,0.768,0.528
		c0.188,0.261,0.281,0.595,0.281,1c0,0.304-0.071,0.579-0.213,0.824c-0.142,0.245-0.352,0.438-0.629,0.58
		c-0.276,0.142-0.609,0.212-1,0.212c-0.555,0-1.013-0.145-1.375-0.433c-0.363-0.288-0.563-0.696-0.601-1.224h0.688
		c0.026,0.304,0.152,0.553,0.381,0.748c0.227,0.195,0.524,0.292,0.898,0.292c0.378,0,0.668-0.1,0.868-0.3
		c0.199-0.2,0.3-0.458,0.3-0.772c0-0.421-0.134-0.72-0.398-0.896c-0.269-0.176-0.676-0.264-1.226-0.264h-0.19v-0.608h0.199
		c1.002-0.011,1.504-0.333,1.504-0.968c0-0.293-0.094-0.525-0.283-0.696c-0.189-0.171-0.463-0.256-0.82-0.256
		c-0.326,0-0.587,0.079-0.784,0.236c-0.196,0.157-0.317,0.367-0.36,0.628h-0.702c0.042-0.464,0.235-0.828,0.579-1.092
		c0.345-0.264,0.773-0.396,1.291-0.396C41.691,25.277,42.011,25.342,42.275,25.473z"/>
</g>
<g>
	<path fill="#0088CC" d="M13.495,32.305c0.531,0.348,0.911,0.837,1.139,1.467h-1.521c-0.282-0.552-0.762-0.828-1.44-0.828
		c-0.378,0-0.713,0.084-1.003,0.252c-0.292,0.168-0.518,0.408-0.68,0.72c-0.162,0.313-0.243,0.672-0.243,1.08
		s0.081,0.769,0.243,1.08c0.162,0.313,0.388,0.554,0.68,0.725c0.291,0.171,0.625,0.257,1.003,0.257c0.672,0,1.152-0.276,1.44-0.828
		h1.521c-0.228,0.63-0.607,1.117-1.139,1.462c-0.531,0.346-1.138,0.518-1.822,0.518c-0.588,0-1.128-0.136-1.62-0.409
		c-0.492-0.273-0.88-0.654-1.166-1.143c-0.285-0.489-0.427-1.043-0.427-1.661c0-0.612,0.142-1.162,0.427-1.651
		s0.673-0.871,1.166-1.147c0.492-0.276,1.032-0.414,1.62-0.414C12.356,31.782,12.964,31.956,13.495,32.305z"/>
	<path fill="#0088CC" d="M18.638,33.321c0.276,0.15,0.498,0.357,0.666,0.621v-0.774h1.26v4.986h-1.26v-0.837
		c-0.174,0.282-0.397,0.504-0.67,0.666c-0.273,0.162-0.587,0.243-0.94,0.243c-0.426,0-0.815-0.109-1.166-0.329
		c-0.351-0.219-0.63-0.523-0.837-0.913c-0.207-0.39-0.31-0.834-0.31-1.332s0.104-0.94,0.31-1.327
		c0.207-0.388,0.486-0.688,0.837-0.905c0.351-0.216,0.739-0.323,1.166-0.323C18.047,33.097,18.362,33.172,18.638,33.321z
		 M17.347,34.365c-0.201,0.114-0.365,0.28-0.491,0.5c-0.126,0.219-0.189,0.481-0.189,0.787s0.063,0.571,0.189,0.797
		c0.126,0.225,0.29,0.395,0.491,0.508c0.201,0.114,0.413,0.171,0.634,0.171c0.228,0,0.442-0.057,0.644-0.171
		c0.201-0.113,0.365-0.281,0.491-0.504c0.126-0.222,0.189-0.485,0.189-0.792c0-0.306-0.063-0.569-0.189-0.792
		c-0.126-0.222-0.29-0.39-0.491-0.504s-0.416-0.171-0.644-0.171C17.759,34.194,17.547,34.251,17.347,34.365z"/>
	<path fill="#0088CC" d="M23.791,33.349c0.249-0.168,0.533-0.252,0.851-0.252v1.296h-0.315c-0.378,0-0.663,0.094-0.855,0.283
		s-0.288,0.515-0.288,0.977v2.502h-1.269v-4.986h1.269v0.883C23.339,33.75,23.542,33.517,23.791,33.349z"/>
	<path fill="#0088CC" d="M28.079,37.093v1.062h-0.801c-0.51,0-0.903-0.117-1.179-0.351c-0.276-0.234-0.414-0.621-0.414-1.161v-2.439
		h-0.531v-1.035h0.531v-1.232h1.269v1.232h1.116v1.035h-1.116v2.439c0,0.162,0.039,0.277,0.117,0.347
		c0.078,0.068,0.213,0.104,0.405,0.104H28.079z"/>
	<path fill="#0088CC" d="M35.928,37.209c-0.162,0.276-0.393,0.504-0.694,0.685c-0.3,0.18-0.65,0.284-1.053,0.314v0.729H33.66v-0.729
		c-0.612-0.042-1.103-0.222-1.472-0.54c-0.369-0.317-0.554-0.747-0.554-1.287h1.35c0.036,0.456,0.262,0.724,0.676,0.802v-1.72
		c-0.463-0.119-0.818-0.229-1.067-0.328s-0.471-0.267-0.666-0.504c-0.194-0.237-0.292-0.56-0.292-0.968
		c0-0.348,0.087-0.658,0.261-0.932c0.174-0.272,0.416-0.49,0.725-0.652s0.655-0.258,1.04-0.288v-0.729h0.521v0.729
		c0.582,0.036,1.046,0.203,1.391,0.5c0.344,0.297,0.531,0.728,0.563,1.291h-1.324c-0.018-0.18-0.082-0.336-0.193-0.468
		s-0.257-0.225-0.437-0.279v1.701c0.444,0.114,0.792,0.221,1.044,0.319c0.252,0.1,0.472,0.266,0.662,0.5
		c0.189,0.233,0.283,0.558,0.283,0.972C36.17,36.64,36.09,36.934,35.928,37.209z M33.132,34.077
		c0.123,0.126,0.299,0.229,0.527,0.306v-1.565c-0.217,0.036-0.389,0.117-0.518,0.243c-0.13,0.126-0.194,0.3-0.194,0.521
		C32.948,33.786,33.009,33.951,33.132,34.077z M34.685,36.908c0.12-0.142,0.181-0.311,0.181-0.509s-0.059-0.357-0.176-0.478
		c-0.117-0.119-0.287-0.222-0.509-0.306v1.566C34.397,37.141,34.565,37.049,34.685,36.908z"/>
	<path fill="#0088CC" d="M41.758,32.683h-2.871v1.494c0.127-0.139,0.301-0.254,0.523-0.347c0.221-0.093,0.459-0.14,0.711-0.14
		c0.504,0,0.912,0.107,1.229,0.324c0.314,0.216,0.539,0.488,0.674,0.818s0.203,0.672,0.203,1.026c0,0.696-0.199,1.253-0.598,1.669
		c-0.4,0.418-0.971,0.626-1.715,0.626c-0.672,0-1.211-0.166-1.615-0.499c-0.406-0.333-0.645-0.77-0.717-1.31h1.242
		c0.055,0.233,0.18,0.42,0.373,0.558c0.195,0.138,0.439,0.207,0.734,0.207c0.359,0,0.629-0.111,0.811-0.333
		c0.18-0.222,0.27-0.516,0.27-0.882s-0.092-0.648-0.275-0.847c-0.182-0.197-0.451-0.297-0.805-0.297
		c-0.258,0-0.473,0.063-0.645,0.189c-0.17,0.126-0.285,0.294-0.346,0.504h-1.205v-3.87h4.021V32.683z"/>
	<path fill="#0088CC" d="M45.021,36.89c0.172,0.147,0.4,0.221,0.689,0.221c0.371,0,0.643-0.147,0.814-0.441
		c0.17-0.294,0.256-0.788,0.256-1.484c-0.133,0.162-0.32,0.291-0.563,0.387s-0.502,0.144-0.779,0.144
		c-0.617,0-1.119-0.177-1.506-0.53c-0.389-0.354-0.582-0.873-0.582-1.558c0-0.438,0.09-0.821,0.266-1.151
		c0.178-0.33,0.434-0.585,0.766-0.766c0.334-0.18,0.727-0.27,1.184-0.27c0.582,0,1.045,0.129,1.387,0.387s0.582,0.63,0.725,1.116
		c0.141,0.486,0.211,1.098,0.211,1.836c0,0.774-0.064,1.404-0.193,1.89c-0.129,0.486-0.359,0.855-0.689,1.107
		s-0.789,0.378-1.377,0.378c-0.678,0-1.191-0.18-1.539-0.54s-0.537-0.81-0.566-1.35h1.17C44.742,36.534,44.852,36.743,45.021,36.89z
		 M46.377,32.776c-0.188-0.194-0.445-0.292-0.775-0.292c-0.316,0-0.568,0.104-0.756,0.311c-0.186,0.207-0.279,0.473-0.279,0.796
		c0,0.301,0.092,0.554,0.271,0.761s0.449,0.311,0.809,0.311c0.313,0,0.559-0.095,0.738-0.283c0.18-0.189,0.271-0.442,0.271-0.761
		C46.656,33.252,46.563,32.972,46.377,32.776z"/>
	<path fill="#0088CC" d="M49.031,36.921c0.139-0.138,0.307-0.207,0.504-0.207c0.203,0,0.377,0.069,0.518,0.207
		c0.141,0.139,0.211,0.31,0.211,0.514s-0.07,0.375-0.211,0.513s-0.314,0.207-0.518,0.207c-0.197,0-0.365-0.069-0.504-0.207
		s-0.207-0.309-0.207-0.513S48.893,37.06,49.031,36.921z"/>
	<path fill="#0088CC" d="M52.951,36.89c0.17,0.147,0.4,0.221,0.688,0.221c0.373,0,0.645-0.147,0.814-0.441
		c0.172-0.294,0.258-0.788,0.258-1.484c-0.133,0.162-0.32,0.291-0.563,0.387c-0.244,0.096-0.504,0.144-0.779,0.144
		c-0.617,0-1.121-0.177-1.508-0.53c-0.387-0.354-0.58-0.873-0.58-1.558c0-0.438,0.088-0.821,0.266-1.151
		c0.176-0.33,0.432-0.585,0.766-0.766c0.332-0.18,0.727-0.27,1.182-0.27c0.582,0,1.045,0.129,1.387,0.387s0.584,0.63,0.725,1.116
		s0.211,1.098,0.211,1.836c0,0.774-0.064,1.404-0.193,1.89c-0.129,0.486-0.357,0.855-0.688,1.107s-0.789,0.378-1.377,0.378
		c-0.678,0-1.191-0.18-1.539-0.54s-0.537-0.81-0.568-1.35h1.172C52.67,36.534,52.779,36.743,52.951,36.89z M54.305,32.776
		c-0.186-0.194-0.443-0.292-0.773-0.292c-0.318,0-0.57,0.104-0.756,0.311s-0.279,0.473-0.279,0.796c0,0.301,0.09,0.554,0.27,0.761
		s0.451,0.311,0.811,0.311c0.313,0,0.559-0.095,0.738-0.283c0.18-0.189,0.27-0.442,0.27-0.761
		C54.584,33.252,54.49,32.972,54.305,32.776z"/>
	<path fill="#0088CC" d="M58.674,36.89c0.172,0.147,0.4,0.221,0.689,0.221c0.371,0,0.643-0.147,0.814-0.441
		c0.17-0.294,0.256-0.788,0.256-1.484c-0.133,0.162-0.32,0.291-0.563,0.387s-0.502,0.144-0.779,0.144
		c-0.617,0-1.119-0.177-1.506-0.53c-0.389-0.354-0.582-0.873-0.582-1.558c0-0.438,0.09-0.821,0.266-1.151
		c0.178-0.33,0.434-0.585,0.766-0.766c0.334-0.18,0.727-0.27,1.184-0.27c0.582,0,1.045,0.129,1.387,0.387s0.582,0.63,0.725,1.116
		c0.141,0.486,0.211,1.098,0.211,1.836c0,0.774-0.064,1.404-0.193,1.89c-0.129,0.486-0.359,0.855-0.689,1.107
		s-0.789,0.378-1.377,0.378c-0.678,0-1.191-0.18-1.539-0.54s-0.537-0.81-0.566-1.35h1.17C58.395,36.534,58.504,36.743,58.674,36.89z
		 M60.029,32.776c-0.188-0.194-0.445-0.292-0.775-0.292c-0.316,0-0.568,0.104-0.756,0.311c-0.186,0.207-0.279,0.473-0.279,0.796
		c0,0.301,0.092,0.554,0.271,0.761s0.449,0.311,0.809,0.311c0.313,0,0.559-0.095,0.738-0.283c0.18-0.189,0.271-0.442,0.271-0.761
		C60.309,33.252,60.215,32.972,60.029,32.776z"/>
</g>
</svg>
