<?xml version="1.0" encoding="utf-8"?>
<!-- Generator: Adobe Illustrator 16.0.0, SVG Export Plug-In . SVG Version: 6.00 Build 0)  -->
<!DOCTYPE svg PUBLIC "-//W3C//DTD SVG 1.1//EN" "http://www.w3.org/Graphics/SVG/1.1/DTD/svg11.dtd">
<svg version="1.1" id="Layer_1" xmlns="http://www.w3.org/2000/svg" xmlns:xlink="http://www.w3.org/1999/xlink" x="0px" y="0px"
	 width="70px" height="70px" viewBox="0 0 70 70" enable-background="new 0 0 70 70" xml:space="preserve">
<path fill="none" stroke="#0B88CA" stroke-miterlimit="10" d="M69.477,66.196c0,1.657-1.343,3-3,3H3.625c-1.656,0-3-1.343-3-3V3.805
	c0-1.657,1.344-3,3-3h62.852c1.657,0,3,1.343,3,3V66.196z"/>
<g>
	<path fill="#0088CC" d="M23.558,27.945h-3.377c-0.354-1.985-2.057-3.514-4.104-3.514c-2.049,0-3.752,1.528-4.104,3.514h-1.083
		v0.007H8.433c-0.316,0-0.576,0.263-0.576,0.584v11.153c0,1.506,1.201,2.73,2.684,2.73h10.907c1.477,0,2.683-1.223,2.683-2.73
		V28.531C24.132,28.208,23.874,27.945,23.558,27.945z M16.076,25.62c1.401,0,2.57,1,2.903,2.327h-5.808
		C13.505,26.62,14.675,25.62,16.076,25.62z M22.983,39.689c0,0.859-0.689,1.561-1.535,1.561H10.542
		c-0.846,0-1.534-0.701-1.534-1.561V29.113h1.88h0.831h0.182v2.627h1.166v-2.627h6.017v2.627h1.167v-2.627h2.732V39.689z"/>
</g>
<circle fill="#0088CC" cx="23.6" cy="28.516" r="5.75"/>
<g>
	<path fill="#FFFFFF" d="M24.591,25.71c0.264,0.131,0.465,0.31,0.604,0.536c0.139,0.226,0.208,0.484,0.208,0.772
		c0,0.314-0.088,0.591-0.264,0.828c-0.176,0.238-0.403,0.399-0.68,0.484v0.04c0.326,0.09,0.582,0.267,0.768,0.528
		c0.187,0.261,0.28,0.595,0.28,1c0,0.304-0.071,0.579-0.212,0.824c-0.142,0.245-0.351,0.438-0.628,0.58
		c-0.277,0.143-0.61,0.212-1,0.212c-0.555,0-1.013-0.144-1.376-0.432c-0.363-0.288-0.563-0.696-0.6-1.224h0.688
		c0.026,0.304,0.153,0.553,0.38,0.748s0.526,0.292,0.9,0.292c0.378,0,0.668-0.1,0.868-0.3c0.2-0.2,0.3-0.458,0.3-0.772
		c0-0.421-0.133-0.72-0.4-0.896c-0.267-0.176-0.675-0.264-1.224-0.264h-0.192v-0.608h0.2c1.002-0.011,1.504-0.333,1.504-0.968
		c0-0.293-0.095-0.525-0.284-0.696c-0.189-0.171-0.463-0.256-0.82-0.256c-0.326,0-0.587,0.079-0.784,0.236
		c-0.197,0.157-0.317,0.367-0.36,0.628h-0.704c0.042-0.464,0.236-0.828,0.58-1.092c0.344-0.264,0.774-0.396,1.292-0.396
		C24.008,25.516,24.327,25.581,24.591,25.71z"/>
</g>
<g>
	<path fill="#0088CC" d="M34.248,28.879c-0.117-0.049-0.267-0.095-0.456-0.141c-0.142-0.034-0.253-0.065-0.329-0.094
		c-0.063-0.023-0.115-0.057-0.156-0.102c-0.033-0.037-0.05-0.087-0.05-0.154c0-0.097,0.026-0.166,0.082-0.211
		c0.12-0.098,0.375-0.105,0.494,0c0.056,0.05,0.087,0.111,0.095,0.188l0.011,0.112h0.752l-0.01-0.135
		c-0.021-0.278-0.132-0.496-0.327-0.646c-0.188-0.145-0.435-0.218-0.733-0.218c-0.205,0-0.39,0.038-0.548,0.111
		c-0.165,0.076-0.296,0.187-0.389,0.329c-0.094,0.143-0.141,0.309-0.141,0.493c0,0.204,0.05,0.37,0.146,0.495
		c0.094,0.12,0.208,0.208,0.338,0.262c0.118,0.05,0.273,0.097,0.459,0.141c0.139,0.033,0.248,0.065,0.326,0.094
		c0.064,0.023,0.116,0.057,0.159,0.101c0.031,0.033,0.047,0.082,0.047,0.147c0,0.09-0.029,0.158-0.092,0.215
		c-0.067,0.06-0.161,0.088-0.287,0.088c-0.119,0-0.208-0.026-0.265-0.077c-0.056-0.05-0.087-0.119-0.095-0.209l-0.011-0.114h-0.727
		v0.125c0,0.28,0.108,0.503,0.321,0.665c0.203,0.152,0.464,0.229,0.775,0.229c0.217,0,0.41-0.044,0.574-0.13
		c0.167-0.088,0.296-0.207,0.382-0.35c0.088-0.144,0.133-0.301,0.133-0.465c0-0.205-0.049-0.37-0.145-0.491
		C34.493,29.021,34.38,28.934,34.248,28.879z"/>
	<path fill="#0088CC" d="M36.799,28.18c-0.289-0.162-0.687-0.164-0.969-0.011c-0.037,0.02-0.072,0.042-0.105,0.067v-0.9h-0.706v3.21
		h0.706v-1.357c0-0.166,0.038-0.286,0.116-0.368c0.076-0.08,0.179-0.119,0.314-0.119s0.238,0.039,0.313,0.119
		c0.075,0.082,0.114,0.206,0.114,0.369v1.357h0.702v-1.425c0-0.22-0.044-0.412-0.129-0.572
		C37.068,28.386,36.947,28.262,36.799,28.18z"/>
	<path fill="#0088CC" d="M39.348,28.211c-0.377-0.207-0.887-0.207-1.264,0c-0.191,0.104-0.344,0.255-0.453,0.448
		c-0.109,0.191-0.164,0.413-0.164,0.658c0,0.247,0.054,0.468,0.159,0.659c0.106,0.191,0.256,0.341,0.444,0.448
		c0.187,0.105,0.396,0.158,0.625,0.158c0.23,0,0.445-0.053,0.638-0.157c0.194-0.105,0.35-0.256,0.462-0.449
		c0.113-0.192,0.17-0.414,0.17-0.659c0-0.245-0.056-0.466-0.165-0.658C39.69,28.465,39.538,28.314,39.348,28.211z M39.246,29.316
		c0,0.139-0.026,0.256-0.08,0.349c-0.052,0.092-0.119,0.163-0.202,0.21c-0.168,0.094-0.373,0.094-0.527,0.003
		c-0.076-0.045-0.136-0.113-0.184-0.207c-0.048-0.096-0.072-0.216-0.072-0.356c0-0.138,0.025-0.256,0.075-0.352
		c0.049-0.092,0.111-0.159,0.19-0.206c0.08-0.047,0.166-0.069,0.261-0.069c0.096,0,0.184,0.023,0.267,0.07
		c0.081,0.046,0.146,0.114,0.195,0.207C39.221,29.061,39.246,29.176,39.246,29.316z"/>
	<path fill="#0088CC" d="M42.105,28.215c-0.343-0.204-0.797-0.211-1.111-0.024c-0.043,0.025-0.084,0.054-0.122,0.084v-0.184h-0.706
		v3.502h0.706v-1.241c0.038,0.032,0.078,0.061,0.121,0.088c0.312,0.195,0.772,0.187,1.113-0.023c0.178-0.109,0.318-0.263,0.42-0.457
		c0.099-0.191,0.149-0.41,0.149-0.651c0-0.242-0.051-0.459-0.15-0.647C42.424,28.471,42.282,28.32,42.105,28.215z M40.949,28.982
		c0.054-0.093,0.119-0.162,0.201-0.209c0.084-0.047,0.173-0.072,0.265-0.072c0.096,0,0.186,0.024,0.27,0.071
		c0.083,0.046,0.148,0.113,0.2,0.204c0.051,0.091,0.077,0.203,0.077,0.333s-0.026,0.245-0.078,0.34
		c-0.052,0.094-0.119,0.166-0.202,0.213c-0.165,0.098-0.363,0.098-0.531,0.001c-0.082-0.047-0.147-0.116-0.2-0.21
		c-0.052-0.094-0.078-0.208-0.078-0.337S40.898,29.074,40.949,28.982z"/>
	<path fill="#0088CC" d="M44.817,28.215c-0.343-0.204-0.797-0.211-1.111-0.024c-0.043,0.025-0.084,0.054-0.122,0.084v-0.184h-0.706
		v3.502h0.706v-1.241c0.038,0.032,0.078,0.061,0.121,0.088c0.312,0.195,0.771,0.187,1.113-0.023c0.178-0.109,0.318-0.263,0.42-0.457
		c0.099-0.191,0.149-0.41,0.149-0.651c0-0.242-0.051-0.459-0.15-0.647C45.136,28.471,44.994,28.32,44.817,28.215z M43.661,28.982
		c0.054-0.093,0.119-0.162,0.201-0.209c0.084-0.047,0.173-0.072,0.265-0.072c0.096,0,0.186,0.024,0.27,0.071
		c0.083,0.046,0.148,0.113,0.2,0.204c0.051,0.091,0.077,0.203,0.077,0.333s-0.026,0.245-0.078,0.34
		c-0.052,0.094-0.119,0.166-0.202,0.213c-0.165,0.098-0.364,0.098-0.531,0.001c-0.082-0.047-0.147-0.116-0.2-0.21
		c-0.052-0.094-0.078-0.208-0.078-0.337S43.61,29.074,43.661,28.982z"/>
	<path fill="#0088CC" d="M45.652,27.335c-0.08,0.08-0.121,0.18-0.121,0.297s0.041,0.217,0.12,0.296
		c0.08,0.081,0.18,0.121,0.297,0.121c0.113,0,0.212-0.041,0.293-0.121c0.08-0.081,0.12-0.18,0.12-0.296
		c0-0.114-0.042-0.217-0.121-0.297C46.076,27.175,45.808,27.181,45.652,27.335z"/>
	<rect x="45.591" y="28.091" fill="#0088CC" width="0.706" height="2.454"/>
	<path fill="#0088CC" d="M48.427,28.18c-0.291-0.162-0.687-0.164-0.969-0.011c-0.037,0.02-0.072,0.042-0.105,0.067v-0.145h-0.706
		v2.454h0.706v-1.357c0-0.166,0.038-0.286,0.116-0.368c0.076-0.08,0.179-0.119,0.314-0.119s0.238,0.039,0.313,0.119
		c0.075,0.082,0.114,0.206,0.114,0.369v1.357h0.702v-1.425c0-0.22-0.044-0.412-0.129-0.572
		C48.696,28.386,48.575,28.262,48.427,28.18z"/>
	<path fill="#0088CC" d="M50.895,28.272c-0.036-0.029-0.075-0.057-0.117-0.081c-0.318-0.189-0.771-0.178-1.111,0.024
		c-0.178,0.105-0.32,0.256-0.423,0.446c-0.101,0.188-0.152,0.406-0.152,0.647s0.051,0.46,0.152,0.652
		c0.102,0.194,0.243,0.348,0.421,0.457c0.342,0.209,0.801,0.22,1.113,0.023c0.041-0.026,0.08-0.054,0.117-0.085v0.101
		c0,0.18-0.043,0.311-0.133,0.399c-0.09,0.089-0.207,0.132-0.358,0.132c-0.133,0-0.248-0.029-0.34-0.087
		c-0.088-0.055-0.143-0.123-0.168-0.208l-0.027-0.089h-0.685l0.016,0.139c0.03,0.275,0.16,0.497,0.388,0.658
		c0.218,0.154,0.492,0.233,0.816,0.233c0.244,0,0.46-0.051,0.64-0.152c0.181-0.102,0.321-0.245,0.419-0.424
		c0.095-0.177,0.143-0.379,0.143-0.601v-2.365h-0.71V28.272z M50.088,29.862c-0.082-0.048-0.149-0.12-0.201-0.213
		c-0.052-0.096-0.078-0.21-0.078-0.34s0.026-0.242,0.077-0.333c0.052-0.091,0.117-0.158,0.199-0.205
		c0.083-0.047,0.171-0.07,0.267-0.07c0.095,0,0.182,0.023,0.266,0.071c0.081,0.048,0.146,0.116,0.199,0.209
		c0.052,0.092,0.078,0.205,0.078,0.335s-0.026,0.244-0.078,0.337c-0.053,0.094-0.118,0.163-0.199,0.211
		C50.453,29.958,50.261,29.963,50.088,29.862z"/>
	<path fill="#0088CC" d="M54.118,28.253c0.238-0.137,0.584-0.144,0.813-0.017c0.107,0.06,0.189,0.145,0.249,0.262l0.035,0.068h0.809
		l-0.067-0.17c-0.114-0.291-0.3-0.52-0.552-0.679c-0.251-0.157-0.539-0.237-0.856-0.237c-0.279,0-0.54,0.066-0.775,0.198
		c-0.236,0.131-0.425,0.317-0.563,0.551c-0.138,0.233-0.207,0.501-0.207,0.795s0.069,0.562,0.207,0.795
		c0.138,0.235,0.326,0.42,0.56,0.551c0.234,0.131,0.496,0.198,0.778,0.198c0.317,0,0.605-0.079,0.856-0.235
		c0.252-0.158,0.438-0.385,0.552-0.677l0.067-0.17h-0.809l-0.035,0.068c-0.06,0.115-0.143,0.204-0.249,0.262
		c-0.23,0.128-0.574,0.12-0.813-0.017c-0.124-0.071-0.219-0.17-0.289-0.305c-0.072-0.135-0.107-0.289-0.107-0.471
		s0.035-0.335,0.107-0.469C53.898,28.423,53.993,28.324,54.118,28.253z"/>
	<path fill="#0088CC" d="M57.898,28.272c-0.036-0.029-0.075-0.057-0.117-0.081c-0.318-0.189-0.772-0.178-1.111,0.024
		c-0.178,0.105-0.32,0.256-0.423,0.446c-0.101,0.188-0.152,0.406-0.152,0.647s0.051,0.46,0.152,0.652
		c0.102,0.194,0.243,0.348,0.421,0.457c0.178,0.109,0.377,0.165,0.592,0.165c0.197,0,0.372-0.047,0.521-0.141
		c0.041-0.026,0.08-0.054,0.117-0.085v0.19h0.71v-2.454h-0.71V28.272z M57.092,29.862c-0.082-0.048-0.149-0.12-0.201-0.213
		c-0.052-0.096-0.078-0.21-0.078-0.34s0.026-0.242,0.077-0.333c0.052-0.091,0.117-0.158,0.199-0.205
		c0.083-0.047,0.171-0.07,0.267-0.07c0.095,0,0.182,0.023,0.266,0.071c0.081,0.048,0.146,0.116,0.199,0.209
		c0.052,0.092,0.078,0.205,0.078,0.335s-0.026,0.244-0.078,0.337c-0.053,0.094-0.118,0.163-0.199,0.211
		C57.458,29.958,57.265,29.963,57.092,29.862z"/>
	<path fill="#0088CC" d="M61.813,28.713v-0.622h-0.536v-0.548h-0.71v0.548h-0.242v-0.036h-0.125c-0.176,0-0.331,0.044-0.462,0.131
		c-0.025,0.017-0.05,0.035-0.073,0.054v-0.149h-0.706v2.454h0.706V29.26c0-0.186,0.035-0.318,0.101-0.382
		c0.068-0.068,0.173-0.101,0.318-0.101h0.241v-0.064h0.242v1.095c0,0.252,0.069,0.441,0.206,0.562
		c0.133,0.116,0.319,0.175,0.555,0.175h0.485v-0.63h-0.405c-0.071,0-0.104-0.013-0.112-0.02c-0.009-0.008-0.019-0.036-0.019-0.087
		v-1.095H61.813z"/>
</g>
<g>
	<path fill="#0088CC" d="M36.359,39.16c-0.145,0.245-0.35,0.448-0.617,0.607c-0.266,0.16-0.578,0.254-0.936,0.28v0.648h-0.463
		v-0.648c-0.544-0.037-0.98-0.197-1.308-0.479c-0.328-0.283-0.492-0.664-0.492-1.145h1.2c0.032,0.405,0.232,0.643,0.601,0.712
		v-1.527c-0.411-0.107-0.727-0.204-0.948-0.292c-0.221-0.089-0.419-0.237-0.592-0.448c-0.174-0.211-0.26-0.497-0.26-0.86
		c0-0.309,0.077-0.585,0.232-0.828c0.155-0.242,0.369-0.436,0.645-0.58c0.274-0.144,0.582-0.229,0.924-0.255v-0.648h0.463v0.648
		c0.518,0.032,0.93,0.18,1.236,0.444s0.473,0.646,0.5,1.147h-1.176c-0.016-0.159-0.074-0.298-0.172-0.416
		c-0.1-0.117-0.229-0.199-0.389-0.247v1.512c0.395,0.102,0.705,0.196,0.928,0.284c0.225,0.088,0.42,0.235,0.588,0.443
		s0.252,0.496,0.252,0.864C36.574,38.653,36.504,38.915,36.359,39.16z M33.875,36.376c0.109,0.112,0.266,0.203,0.469,0.272v-1.393
		c-0.192,0.032-0.346,0.104-0.46,0.216c-0.115,0.112-0.172,0.267-0.172,0.464C33.711,36.117,33.765,36.264,33.875,36.376z
		 M35.256,38.892c0.105-0.125,0.158-0.275,0.158-0.451c0-0.177-0.051-0.317-0.154-0.425c-0.105-0.106-0.256-0.197-0.453-0.271v1.392
		C34.998,39.099,35.148,39.018,35.256,38.892z"/>
	<path fill="#0088CC" d="M41.543,35.136H38.99v1.328c0.113-0.122,0.268-0.226,0.465-0.308c0.197-0.083,0.408-0.124,0.631-0.124
		c0.449,0,0.813,0.096,1.094,0.288c0.279,0.191,0.479,0.435,0.6,0.728c0.119,0.294,0.18,0.598,0.18,0.912
		c0,0.619-0.178,1.113-0.531,1.484C41.072,39.814,40.564,40,39.902,40c-0.598,0-1.076-0.148-1.436-0.444s-0.572-0.684-0.637-1.164
		h1.105c0.047,0.208,0.158,0.374,0.332,0.496c0.172,0.123,0.391,0.185,0.65,0.185c0.32,0,0.561-0.099,0.721-0.296
		s0.24-0.459,0.24-0.784s-0.082-0.576-0.244-0.752s-0.402-0.265-0.717-0.265c-0.229,0-0.42,0.057-0.57,0.168
		c-0.152,0.112-0.256,0.262-0.309,0.448h-1.072v-3.44h3.576V35.136z"/>
	<path fill="#0088CC" d="M44.443,38.876c0.152,0.131,0.355,0.196,0.611,0.196c0.33,0,0.572-0.131,0.725-0.393
		c0.152-0.261,0.229-0.701,0.229-1.319c-0.117,0.144-0.285,0.259-0.5,0.344c-0.217,0.085-0.447,0.128-0.693,0.128
		c-0.549,0-0.996-0.157-1.34-0.472c-0.344-0.315-0.516-0.776-0.516-1.385c0-0.389,0.078-0.73,0.236-1.023
		c0.156-0.293,0.385-0.52,0.68-0.68c0.297-0.16,0.646-0.24,1.053-0.24c0.518,0,0.928,0.115,1.23,0.344
		c0.305,0.229,0.52,0.56,0.645,0.992C46.928,35.8,46.99,36.344,46.99,37c0,0.688-0.057,1.248-0.172,1.68
		c-0.113,0.433-0.318,0.761-0.611,0.984S45.506,40,44.982,40c-0.602,0-1.059-0.16-1.367-0.48c-0.309-0.319-0.477-0.72-0.504-1.199
		h1.039C44.193,38.56,44.291,38.745,44.443,38.876z M45.646,35.22c-0.164-0.173-0.395-0.26-0.688-0.26
		c-0.283,0-0.506,0.092-0.672,0.276c-0.166,0.184-0.248,0.42-0.248,0.708c0,0.267,0.08,0.491,0.24,0.676
		c0.16,0.184,0.4,0.276,0.721,0.276c0.275,0,0.494-0.085,0.654-0.253s0.24-0.393,0.24-0.676
		C45.895,35.643,45.813,35.394,45.646,35.22z"/>
	<path fill="#0088CC" d="M48.008,38.904c0.121-0.123,0.271-0.185,0.447-0.185c0.182,0,0.334,0.062,0.459,0.185
		c0.127,0.122,0.189,0.274,0.189,0.456c0,0.181-0.063,0.333-0.189,0.456C48.789,39.938,48.637,40,48.455,40
		c-0.176,0-0.326-0.062-0.447-0.184c-0.123-0.123-0.186-0.275-0.186-0.456C47.822,39.179,47.885,39.026,48.008,38.904z"/>
	<path fill="#0088CC" d="M51.49,38.876c0.152,0.131,0.357,0.196,0.613,0.196c0.33,0,0.572-0.131,0.723-0.393
		c0.152-0.261,0.229-0.701,0.229-1.319c-0.117,0.144-0.283,0.259-0.5,0.344c-0.215,0.085-0.447,0.128-0.691,0.128
		c-0.549,0-0.996-0.157-1.34-0.472c-0.344-0.315-0.516-0.776-0.516-1.385c0-0.389,0.078-0.73,0.234-1.023
		c0.158-0.293,0.385-0.52,0.682-0.68c0.295-0.16,0.646-0.24,1.051-0.24c0.518,0,0.928,0.115,1.232,0.344
		c0.305,0.229,0.52,0.56,0.645,0.992c0.125,0.432,0.188,0.976,0.188,1.632c0,0.688-0.057,1.248-0.172,1.68
		c-0.115,0.433-0.318,0.761-0.611,0.984C52.961,39.888,52.553,40,52.031,40c-0.604,0-1.059-0.16-1.369-0.48
		c-0.309-0.319-0.477-0.72-0.504-1.199h1.041C51.242,38.56,51.34,38.745,51.49,38.876z M52.695,35.22
		c-0.166-0.173-0.395-0.26-0.688-0.26c-0.283,0-0.508,0.092-0.672,0.276c-0.166,0.184-0.248,0.42-0.248,0.708
		c0,0.267,0.078,0.491,0.238,0.676c0.16,0.184,0.4,0.276,0.721,0.276c0.277,0,0.496-0.085,0.656-0.253s0.24-0.393,0.24-0.676
		C52.943,35.643,52.859,35.394,52.695,35.22z"/>
	<path fill="#0088CC" d="M56.578,38.876c0.152,0.131,0.357,0.196,0.613,0.196c0.33,0,0.572-0.131,0.723-0.393
		c0.152-0.261,0.229-0.701,0.229-1.319c-0.117,0.144-0.283,0.259-0.5,0.344c-0.215,0.085-0.447,0.128-0.691,0.128
		c-0.549,0-0.996-0.157-1.34-0.472c-0.344-0.315-0.516-0.776-0.516-1.385c0-0.389,0.078-0.73,0.234-1.023
		c0.158-0.293,0.385-0.52,0.682-0.68c0.295-0.16,0.646-0.24,1.051-0.24c0.518,0,0.928,0.115,1.232,0.344
		c0.305,0.229,0.52,0.56,0.645,0.992c0.125,0.432,0.188,0.976,0.188,1.632c0,0.688-0.057,1.248-0.172,1.68
		c-0.115,0.433-0.318,0.761-0.611,0.984C58.049,39.888,57.641,40,57.119,40c-0.604,0-1.059-0.16-1.369-0.48
		c-0.309-0.319-0.477-0.72-0.504-1.199h1.041C56.33,38.56,56.428,38.745,56.578,38.876z M57.783,35.22
		c-0.166-0.173-0.395-0.26-0.688-0.26c-0.283,0-0.508,0.092-0.672,0.276c-0.166,0.184-0.248,0.42-0.248,0.708
		c0,0.267,0.078,0.491,0.238,0.676c0.16,0.184,0.4,0.276,0.721,0.276c0.277,0,0.496-0.085,0.656-0.253s0.24-0.393,0.24-0.676
		C58.031,35.643,57.947,35.394,57.783,35.22z"/>
</g>
</svg>
