<?xml version="1.0" encoding="utf-8"?>
<!-- Generator: Adobe Illustrator 16.0.0, SVG Export Plug-In . SVG Version: 6.00 Build 0)  -->
<!DOCTYPE svg PUBLIC "-//W3C//DTD SVG 1.1//EN" "http://www.w3.org/Graphics/SVG/1.1/DTD/svg11.dtd">
<svg version="1.1" id="Layer_1" xmlns="http://www.w3.org/2000/svg" xmlns:xlink="http://www.w3.org/1999/xlink" x="0px" y="0px"
	 width="70px" height="70px" viewBox="0 0 70 70" enable-background="new 0 0 70 70" xml:space="preserve">
<path fill="none" stroke="#0B88CA" stroke-miterlimit="10" d="M69.461,66.195c0,1.658-1.344,3-3,3H3.609c-1.656,0-3-1.342-3-3V3.805
	c0-1.657,1.344-3,3-3h62.852c1.656,0,3,1.343,3,3V66.195z"/>
<line fill="none" stroke="#0B88CA" stroke-miterlimit="10" x1="20" y1="0.805" x2="20" y2="69.195"/>
<line fill="none" stroke="#0B88CA" stroke-miterlimit="10" x1="20" y1="11.375" x2="69.773" y2="11.375"/>
<line fill="none" stroke="#0B88CA" stroke-miterlimit="10" x1="4.73" y1="13" x2="16.125" y2="13"/>
<line fill="none" stroke="#0B88CA" stroke-miterlimit="10" x1="4.73" y1="18.375" x2="16.125" y2="18.375"/>
<line fill="none" stroke="#0B88CA" stroke-miterlimit="10" x1="4.73" y1="24" x2="16.125" y2="24"/>
<line fill="none" stroke="#0B88CA" stroke-miterlimit="10" x1="4.73" y1="29.375" x2="16.125" y2="29.375"/>
<line fill="none" stroke="#0B88CA" stroke-miterlimit="10" x1="4.73" y1="34.75" x2="16.125" y2="34.75"/>
<line fill="none" stroke="#0B88CA" stroke-miterlimit="10" x1="4.73" y1="40.375" x2="16.125" y2="40.375"/>
<line fill="none" stroke="#0B88CA" stroke-miterlimit="10" x1="4.73" y1="45.75" x2="16.125" y2="45.75"/>
<line fill="none" stroke="#0B88CA" stroke-miterlimit="10" x1="25.497" y1="3.625" x2="32.504" y2="3.625"/>
<line fill="none" stroke="#0B88CA" stroke-miterlimit="10" x1="25.497" y1="6.208" x2="32.504" y2="6.208"/>
<line fill="none" stroke="#0B88CA" stroke-miterlimit="10" x1="25.497" y1="8.625" x2="32.504" y2="8.625"/>
</svg>
