<?xml version="1.0" encoding="utf-8"?>
<!-- Generator: Adobe Illustrator 16.0.0, SVG Export Plug-In . SVG Version: 6.00 Build 0)  -->
<!DOCTYPE svg PUBLIC "-//W3C//DTD SVG 1.1//EN" "http://www.w3.org/Graphics/SVG/1.1/DTD/svg11.dtd">
<svg version="1.1" id="Layer_1" xmlns="http://www.w3.org/2000/svg" xmlns:xlink="http://www.w3.org/1999/xlink" x="0px" y="0px"
	 width="160px" height="50px" viewBox="0 0 160 50" enable-background="new 0 0 160 50" xml:space="preserve">
<rect fill="#E4EFF2" width="160" height="50"/>
<g>
	<path fill="#0088CC" d="M27.833,27.779c-0.216,0.367-0.536,0.666-0.96,0.895s-0.932,0.342-1.524,0.342
		c-0.528,0-1.004-0.086-1.428-0.258s-0.758-0.42-1.002-0.744c-0.244-0.322-0.366-0.709-0.366-1.156h1.164
		c0.032,0.375,0.182,0.682,0.45,0.912s0.662,0.349,1.182,0.349c0.536,0,0.96-0.138,1.272-0.407s0.468-0.619,0.468-1.044
		c0-0.317-0.088-0.573-0.264-0.765c-0.176-0.188-0.396-0.328-0.66-0.424s-0.616-0.192-1.056-0.288
		c-0.552-0.128-0.998-0.261-1.338-0.396c-0.34-0.135-0.628-0.355-0.864-0.659c-0.236-0.305-0.354-0.725-0.354-1.261
		c0-0.464,0.112-0.872,0.336-1.224c0.224-0.352,0.546-0.625,0.966-0.822c0.42-0.195,0.91-0.294,1.47-0.294
		c0.76,0,1.378,0.187,1.854,0.558c0.476,0.373,0.75,0.887,0.822,1.543h-1.212c-0.032-0.328-0.186-0.608-0.462-0.841
		c-0.276-0.231-0.646-0.348-1.11-0.348c-0.472,0-0.856,0.118-1.152,0.354c-0.296,0.235-0.444,0.582-0.444,1.037
		c0,0.328,0.088,0.588,0.264,0.78c0.176,0.192,0.394,0.336,0.654,0.433c0.26,0.096,0.622,0.195,1.086,0.299
		c0.544,0.129,0.984,0.259,1.32,0.391c0.336,0.132,0.622,0.348,0.858,0.643c0.236,0.299,0.354,0.705,0.354,1.227
		C28.158,27.02,28.049,27.412,27.833,27.779z"/>
	<path fill="#0088CC" d="M35.706,26.016h-5.244c0.032,0.656,0.238,1.174,0.618,1.555s0.866,0.568,1.458,0.568
		c0.448,0,0.826-0.1,1.134-0.299c0.308-0.201,0.534-0.465,0.678-0.793h1.176c-0.208,0.576-0.566,1.053-1.074,1.43
		c-0.508,0.375-1.146,0.563-1.914,0.563c-0.616,0-1.166-0.142-1.65-0.42c-0.484-0.279-0.862-0.681-1.134-1.193
		c-0.272-0.518-0.408-1.108-0.408-1.78c0-0.683,0.136-1.278,0.408-1.794c0.272-0.517,0.656-0.914,1.152-1.194
		c0.496-0.28,1.068-0.42,1.716-0.42c0.616,0,1.16,0.136,1.632,0.408c0.472,0.271,0.84,0.644,1.104,1.116
		c0.264,0.472,0.396,1.008,0.396,1.607C35.753,25.6,35.737,25.814,35.706,26.016z M34.613,25.223c0-0.424-0.092-0.793-0.276-1.109
		c-0.184-0.316-0.434-0.559-0.75-0.727c-0.316-0.168-0.666-0.252-1.05-0.252c-0.568,0-1.044,0.188-1.428,0.559
		c-0.384,0.372-0.596,0.882-0.636,1.529H34.613z"/>
	<path fill="#0088CC" d="M41.292,22.631c0.42,0.265,0.738,0.608,0.954,1.032v-1.319h1.104v6.588h-1.104v-1.345
		c-0.216,0.435-0.534,0.782-0.954,1.052s-0.91,0.4-1.47,0.4c-0.592,0-1.126-0.146-1.604-0.438c-0.476-0.291-0.852-0.699-1.128-1.225
		c-0.276-0.523-0.414-1.119-0.414-1.782c0-0.665,0.138-1.25,0.414-1.759c0.276-0.509,0.652-0.902,1.128-1.183
		c0.476-0.28,1.01-0.42,1.604-0.42C40.381,22.235,40.872,22.367,41.292,22.631z M38.916,23.471c-0.34,0.192-0.612,0.471-0.816,0.834
		c-0.204,0.365-0.306,0.795-0.306,1.291c0,0.498,0.102,0.937,0.306,1.313c0.204,0.381,0.476,0.675,0.816,0.883
		s0.706,0.313,1.098,0.313c0.4,0,0.77-0.103,1.11-0.301c0.34-0.199,0.612-0.486,0.816-0.857c0.204-0.372,0.306-0.807,0.306-1.303
		c0-0.497-0.102-0.931-0.306-1.304c-0.204-0.371-0.476-0.657-0.816-0.857c-0.34-0.2-0.71-0.3-1.11-0.3
		C39.622,23.184,39.255,23.279,38.916,23.471z"/>
	<path fill="#0088CC" d="M48.245,22.235v1.14h-0.288c-0.56,0-0.986,0.146-1.278,0.438s-0.438,0.798-0.438,1.519v3.6h-1.092v-6.587
		h1.092v1.117C46.633,22.644,47.301,22.235,48.245,22.235z"/>
	<path fill="#0088CC" d="M54.263,22.787c0.5,0.368,0.85,0.893,1.05,1.572h-1.176c-0.128-0.384-0.348-0.684-0.66-0.9
		s-0.696-0.324-1.152-0.324c-0.624,0-1.126,0.219-1.506,0.654c-0.38,0.436-0.57,1.055-0.57,1.854c0,0.793,0.19,1.405,0.57,1.842
		c0.38,0.438,0.882,0.654,1.506,0.654c0.464,0,0.848-0.104,1.152-0.313s0.524-0.514,0.66-0.912h1.176
		c-0.2,0.646-0.554,1.164-1.062,1.548c-0.508,0.386-1.15,0.576-1.926,0.576c-0.616,0-1.166-0.142-1.65-0.42
		c-0.484-0.279-0.862-0.679-1.134-1.193c-0.272-0.518-0.408-1.11-0.408-1.782c0-0.681,0.136-1.276,0.408-1.792
		c0.272-0.517,0.648-0.914,1.128-1.194c0.48-0.28,1.032-0.42,1.656-0.42C53.117,22.235,53.763,22.42,54.263,22.787z"/>
	<path fill="#0088CC" d="M61.295,22.553c0.388,0.213,0.696,0.528,0.924,0.948c0.229,0.421,0.342,0.931,0.342,1.53v3.9h-1.08V25.21
		c0-0.664-0.16-1.168-0.48-1.513c-0.32-0.344-0.764-0.517-1.332-0.517c-0.56,0-1.002,0.173-1.326,0.517
		c-0.324,0.344-0.486,0.849-0.486,1.513v3.722h-1.092V20.05h1.092v3.36c0.216-0.384,0.512-0.676,0.888-0.876
		c0.376-0.199,0.796-0.3,1.26-0.3C60.477,22.235,60.907,22.342,61.295,22.553z"/>
	<path fill="#0088CC" d="M64.265,27.73c0.136-0.136,0.3-0.203,0.492-0.203c0.192,0,0.356,0.067,0.492,0.203
		c0.136,0.138,0.204,0.306,0.204,0.504c0,0.191-0.068,0.355-0.204,0.492c-0.136,0.137-0.3,0.205-0.492,0.205
		c-0.192,0-0.356-0.068-0.492-0.205c-0.136-0.137-0.204-0.301-0.204-0.492C64.061,28.036,64.129,27.868,64.265,27.73z"/>
	<path fill="#0088CC" d="M66.977,27.73c0.136-0.136,0.3-0.203,0.492-0.203c0.192,0,0.356,0.067,0.492,0.203
		c0.136,0.138,0.204,0.306,0.204,0.504c0,0.191-0.068,0.355-0.204,0.492c-0.136,0.137-0.3,0.205-0.492,0.205
		c-0.192,0-0.356-0.068-0.492-0.205c-0.136-0.137-0.204-0.301-0.204-0.492C66.773,28.036,66.841,27.868,66.977,27.73z"/>
	<path fill="#0088CC" d="M69.689,27.73c0.136-0.136,0.3-0.203,0.492-0.203s0.356,0.067,0.492,0.203
		c0.136,0.138,0.204,0.306,0.204,0.504c0,0.191-0.068,0.355-0.204,0.492c-0.136,0.137-0.3,0.205-0.492,0.205
		s-0.356-0.068-0.492-0.205s-0.204-0.301-0.204-0.492C69.485,28.036,69.553,27.868,69.689,27.73z"/>
</g>
<path fill="#0088CC" d="M125,30.244l-3.16-3.16c0.711-0.947,1.139-2.119,1.139-3.392c0-3.125-2.543-5.667-5.668-5.667
	s-5.666,2.542-5.666,5.667c0,3.125,2.541,5.667,5.666,5.667c1.492,0,2.851-0.584,3.86-1.529l3.122,3.121L125,30.244z
	 M117.311,28.359c-2.57,0-4.666-2.094-4.666-4.667c0-2.573,2.096-4.667,4.666-4.667c2.573,0,4.668,2.094,4.668,4.667
	C121.979,26.266,119.884,28.359,117.311,28.359z"/>
<line fill="none" stroke="#0088CC" stroke-miterlimit="10" x1="10" y1="39.01" x2="150" y2="39.01"/>
<polygon fill="#0088CC" stroke="#0088CC" stroke-width="0.5" stroke-miterlimit="10" points="150.021,9.292 149.601,8.872 
	145.313,13.159 141.025,8.872 140.604,9.292 144.892,13.58 140.604,17.867 141.025,18.288 145.313,14 149.601,18.288 
	150.021,17.867 145.733,13.58 "/>
</svg>
