<?xml version="1.0" encoding="utf-8"?>
<!-- Generator: Adobe Illustrator 16.0.0, SVG Export Plug-In . SVG Version: 6.00 Build 0)  -->
<!DOCTYPE svg PUBLIC "-//W3C//DTD SVG 1.1//EN" "http://www.w3.org/Graphics/SVG/1.1/DTD/svg11.dtd">
<svg version="1.1" id="Layer_1" xmlns="http://www.w3.org/2000/svg" xmlns:xlink="http://www.w3.org/1999/xlink" x="0px" y="0px"
	 width="140px" height="30px" viewBox="0 0 140 30" enable-background="new 0 0 140 30" xml:space="preserve">
<g>
	<path fill="#0088CC" d="M136.523,29.977H3.475C1.559,29.977,0,28.418,0,26.502V3.499c0-1.916,1.559-3.476,3.475-3.476h133.048
		c1.916,0,3.477,1.56,3.477,3.476v23.003C140,28.418,138.439,29.977,136.523,29.977z M3.475,1.018c-1.369,0-2.482,1.112-2.482,2.48
		v23.003c0,1.369,1.114,2.481,2.482,2.481h133.048c1.369,0,2.482-1.112,2.482-2.481V3.499c0-1.368-1.113-2.481-2.482-2.481H3.475
		L3.475,1.018z"/>
</g>
<g>
	<path fill="#0088CC" d="M17.833,18.291c-0.216,0.368-0.536,0.666-0.96,0.895s-0.932,0.342-1.524,0.342
		c-0.528,0-1.004-0.086-1.428-0.258s-0.758-0.42-1.002-0.744c-0.244-0.323-0.366-0.709-0.366-1.157h1.164
		c0.032,0.376,0.182,0.681,0.45,0.912s0.662,0.348,1.182,0.348c0.536,0,0.96-0.136,1.272-0.407s0.468-0.619,0.468-1.044
		c0-0.319-0.088-0.573-0.264-0.763c-0.176-0.188-0.396-0.33-0.66-0.426s-0.616-0.192-1.056-0.288
		c-0.552-0.128-0.998-0.261-1.338-0.396s-0.628-0.355-0.864-0.659c-0.236-0.305-0.354-0.725-0.354-1.261
		c0-0.464,0.112-0.872,0.336-1.224c0.224-0.352,0.546-0.625,0.966-0.822c0.42-0.195,0.91-0.294,1.47-0.294
		c0.76,0,1.378,0.187,1.854,0.558c0.476,0.373,0.75,0.887,0.822,1.543h-1.212c-0.032-0.328-0.186-0.608-0.462-0.841
		c-0.276-0.231-0.646-0.348-1.11-0.348c-0.472,0-0.856,0.118-1.152,0.354c-0.296,0.235-0.444,0.582-0.444,1.037
		c0,0.328,0.088,0.588,0.264,0.78c0.176,0.192,0.394,0.336,0.654,0.433c0.26,0.096,0.622,0.195,1.086,0.299
		c0.544,0.129,0.984,0.259,1.32,0.391c0.336,0.132,0.622,0.348,0.858,0.643c0.236,0.297,0.354,0.705,0.354,1.225
		C18.158,17.531,18.049,17.924,17.833,18.291z"/>
	<path fill="#0088CC" d="M25.706,16.527h-5.244c0.032,0.656,0.238,1.174,0.618,1.554s0.866,0.569,1.458,0.569
		c0.448,0,0.826-0.1,1.134-0.299c0.308-0.201,0.534-0.465,0.678-0.793h1.176c-0.208,0.576-0.566,1.053-1.074,1.429
		c-0.508,0.376-1.146,0.563-1.914,0.563c-0.616,0-1.166-0.141-1.65-0.42c-0.484-0.279-0.862-0.679-1.134-1.193
		c-0.272-0.518-0.408-1.11-0.408-1.782c0-0.681,0.136-1.278,0.408-1.794c0.272-0.517,0.656-0.914,1.152-1.194
		c0.496-0.28,1.068-0.42,1.716-0.42c0.616,0,1.16,0.136,1.632,0.408c0.472,0.271,0.84,0.644,1.104,1.116
		c0.264,0.472,0.396,1.008,0.396,1.607C25.753,16.111,25.737,16.327,25.706,16.527z M24.613,15.734c0-0.424-0.092-0.793-0.276-1.109
		s-0.434-0.559-0.75-0.727s-0.666-0.252-1.05-0.252c-0.568,0-1.044,0.187-1.428,0.559c-0.384,0.372-0.596,0.882-0.636,1.529H24.613z
		"/>
	<path fill="#0088CC" d="M31.292,13.143c0.42,0.265,0.738,0.608,0.954,1.032v-1.319h1.104v6.588h-1.104V18.1
		c-0.216,0.433-0.534,0.782-0.954,1.051s-0.91,0.401-1.47,0.401c-0.592,0-1.126-0.146-1.603-0.438
		c-0.476-0.292-0.852-0.7-1.128-1.224c-0.276-0.524-0.414-1.119-0.414-1.783s0.138-1.25,0.414-1.758
		c0.276-0.509,0.652-0.902,1.128-1.183c0.476-0.28,1.01-0.42,1.603-0.42C30.381,12.747,30.872,12.879,31.292,13.143z M28.916,13.982
		c-0.34,0.192-0.612,0.471-0.816,0.834c-0.204,0.365-0.306,0.795-0.306,1.291c0,0.498,0.102,0.935,0.306,1.313
		c0.204,0.381,0.476,0.675,0.816,0.883s0.706,0.313,1.098,0.313c0.4,0,0.77-0.101,1.11-0.3c0.34-0.2,0.612-0.486,0.816-0.858
		s0.306-0.806,0.306-1.302s-0.102-0.93-0.306-1.303c-0.204-0.371-0.476-0.657-0.816-0.857s-0.71-0.3-1.11-0.3
		C29.622,13.695,29.255,13.791,28.916,13.982z"/>
	<path fill="#0088CC" d="M38.245,12.747v1.14h-0.288c-0.56,0-0.986,0.146-1.278,0.438s-0.438,0.798-0.438,1.519v3.6h-1.092v-6.588
		h1.092v1.117C36.633,13.155,37.301,12.747,38.245,12.747z"/>
	<path fill="#0088CC" d="M44.263,13.299c0.5,0.368,0.85,0.893,1.05,1.572h-1.176c-0.128-0.384-0.348-0.684-0.66-0.9
		c-0.312-0.216-0.696-0.324-1.152-0.324c-0.624,0-1.126,0.219-1.506,0.654c-0.38,0.436-0.57,1.055-0.57,1.854
		c0,0.792,0.19,1.405,0.57,1.842c0.38,0.437,0.882,0.653,1.506,0.653c0.464,0,0.848-0.104,1.152-0.312s0.524-0.513,0.66-0.912h1.176
		c-0.2,0.647-0.554,1.164-1.062,1.548c-0.508,0.385-1.15,0.576-1.926,0.576c-0.616,0-1.166-0.141-1.65-0.42
		c-0.484-0.279-0.862-0.679-1.134-1.193c-0.272-0.518-0.408-1.11-0.408-1.782c0-0.681,0.136-1.278,0.408-1.794
		c0.272-0.517,0.648-0.914,1.128-1.194s1.032-0.42,1.656-0.42C43.117,12.747,43.763,12.932,44.263,13.299z"/>
	<path fill="#0088CC" d="M51.295,13.064c0.388,0.213,0.696,0.528,0.924,0.948c0.229,0.421,0.342,0.931,0.342,1.53v3.9h-1.08v-3.721
		c0-0.664-0.16-1.168-0.48-1.513c-0.32-0.344-0.764-0.517-1.332-0.517c-0.56,0-1.002,0.173-1.326,0.517
		c-0.324,0.344-0.486,0.849-0.486,1.513v3.721h-1.092v-8.881h1.092v3.36c0.216-0.384,0.512-0.676,0.888-0.876
		c0.376-0.199,0.796-0.3,1.26-0.3C50.477,12.747,50.907,12.854,51.295,13.064z"/>
	<path fill="#0088CC" d="M54.265,18.243c0.136-0.136,0.3-0.204,0.492-0.204c0.192,0,0.356,0.068,0.492,0.204
		c0.136,0.137,0.204,0.305,0.204,0.504c0,0.192-0.068,0.356-0.204,0.492c-0.136,0.136-0.3,0.204-0.492,0.204
		c-0.192,0-0.356-0.068-0.492-0.204c-0.136-0.136-0.204-0.3-0.204-0.492C54.061,18.548,54.129,18.38,54.265,18.243z"/>
	<path fill="#0088CC" d="M56.977,18.243c0.136-0.136,0.3-0.204,0.492-0.204c0.192,0,0.356,0.068,0.492,0.204
		c0.136,0.137,0.204,0.305,0.204,0.504c0,0.192-0.068,0.356-0.204,0.492c-0.136,0.136-0.3,0.204-0.492,0.204
		c-0.192,0-0.356-0.068-0.492-0.204c-0.136-0.136-0.204-0.3-0.204-0.492C56.773,18.548,56.841,18.38,56.977,18.243z"/>
	<path fill="#0088CC" d="M59.689,18.243c0.136-0.136,0.3-0.204,0.492-0.204s0.356,0.068,0.492,0.204
		c0.136,0.137,0.204,0.305,0.204,0.504c0,0.192-0.068,0.356-0.204,0.492c-0.136,0.136-0.3,0.204-0.492,0.204
		s-0.356-0.068-0.492-0.204s-0.204-0.3-0.204-0.492C59.485,18.548,59.553,18.38,59.689,18.243z"/>
</g>
<path fill="#0088CC" d="M127,20.756l-3.16-3.16c0.711-0.947,1.139-2.119,1.139-3.392c0-3.125-2.543-5.667-5.668-5.667
	s-5.666,2.542-5.666,5.667s2.541,5.667,5.666,5.667c1.492,0,2.849-0.584,3.86-1.529l3.122,3.121L127,20.756z M119.311,18.871
	c-2.572,0-4.666-2.094-4.666-4.667s2.094-4.667,4.666-4.667c2.573,0,4.668,2.094,4.668,4.667S121.884,18.871,119.311,18.871z"/>
</svg>
