<?xml version="1.0" encoding="utf-8"?>
<!-- Generator: Adobe Illustrator 16.0.0, SVG Export Plug-In . SVG Version: 6.00 Build 0)  -->
<!DOCTYPE svg PUBLIC "-//W3C//DTD SVG 1.1//EN" "http://www.w3.org/Graphics/SVG/1.1/DTD/svg11.dtd">
<svg version="1.1" id="Layer_1" xmlns="http://www.w3.org/2000/svg" xmlns:xlink="http://www.w3.org/1999/xlink" x="0px" y="0px"
	 width="160px" height="50px" viewBox="-10 -10 160 50" enable-background="new -10 -10 160 50" xml:space="preserve">
<g>
	<path fill="#0088CC" d="M10.272,22.672c-0.216,0.367-0.536,0.666-0.96,0.895s-0.932,0.342-1.524,0.342
		c-0.528,0-1.004-0.086-1.428-0.258s-0.758-0.42-1.002-0.744c-0.244-0.322-0.366-0.709-0.366-1.156h1.164
		c0.032,0.375,0.182,0.681,0.45,0.912c0.268,0.23,0.662,0.348,1.182,0.348c0.536,0,0.96-0.137,1.272-0.407s0.468-0.619,0.468-1.044
		c0-0.318-0.088-0.573-0.264-0.764c-0.176-0.188-0.396-0.329-0.66-0.426c-0.264-0.096-0.616-0.191-1.056-0.287
		C6.996,19.953,6.55,19.82,6.21,19.686s-0.628-0.355-0.864-0.659c-0.236-0.305-0.354-0.725-0.354-1.261
		c0-0.464,0.112-0.872,0.336-1.225c0.224-0.352,0.546-0.625,0.966-0.821c0.42-0.195,0.91-0.294,1.47-0.294
		c0.76,0,1.378,0.188,1.854,0.558c0.476,0.373,0.75,0.888,0.822,1.543H9.228c-0.032-0.327-0.186-0.608-0.462-0.841
		c-0.276-0.23-0.646-0.348-1.11-0.348c-0.472,0-0.856,0.117-1.152,0.354c-0.296,0.235-0.444,0.582-0.444,1.037
		c0,0.328,0.088,0.588,0.264,0.78c0.176,0.192,0.394,0.336,0.654,0.433c0.26,0.096,0.622,0.195,1.086,0.299
		c0.544,0.129,0.984,0.26,1.32,0.391c0.336,0.133,0.622,0.349,0.858,0.644c0.236,0.298,0.354,0.705,0.354,1.226
		C10.597,21.912,10.488,22.305,10.272,22.672z"/>
	<path fill="#0088CC" d="M18.145,20.908h-5.244c0.032,0.656,0.238,1.174,0.618,1.555c0.38,0.38,0.866,0.568,1.458,0.568
		c0.448,0,0.826-0.1,1.134-0.299c0.308-0.201,0.534-0.465,0.678-0.793h1.176c-0.208,0.576-0.566,1.053-1.074,1.43
		c-0.508,0.375-1.146,0.563-1.914,0.563c-0.616,0-1.166-0.141-1.65-0.42c-0.484-0.279-0.862-0.68-1.134-1.193
		c-0.272-0.518-0.408-1.109-0.408-1.781c0-0.682,0.136-1.278,0.408-1.795s0.656-0.914,1.152-1.193c0.496-0.28,1.068-0.42,1.716-0.42
		c0.616,0,1.16,0.136,1.632,0.408c0.472,0.271,0.84,0.644,1.104,1.115c0.264,0.473,0.396,1.008,0.396,1.607
		C18.192,20.492,18.176,20.707,18.145,20.908z M17.052,20.115c0-0.424-0.092-0.793-0.276-1.109c-0.184-0.315-0.434-0.559-0.75-0.727
		s-0.666-0.252-1.05-0.252c-0.568,0-1.044,0.188-1.428,0.559c-0.384,0.373-0.596,0.883-0.636,1.529H17.052z"/>
	<path fill="#0088CC" d="M23.731,17.523c0.42,0.266,0.738,0.607,0.954,1.032v-1.319h1.104v6.588h-1.104V22.48
		c-0.216,0.434-0.534,0.782-0.954,1.051c-0.42,0.27-0.91,0.401-1.47,0.401c-0.592,0-1.126-0.146-1.604-0.438
		c-0.476-0.291-0.852-0.699-1.128-1.224c-0.276-0.524-0.414-1.119-0.414-1.782c0-0.664,0.138-1.25,0.414-1.759
		c0.276-0.509,0.652-0.901,1.128-1.183c0.476-0.28,1.01-0.42,1.604-0.42C22.82,17.127,23.311,17.26,23.731,17.523z M21.355,18.363
		c-0.34,0.192-0.612,0.471-0.816,0.834c-0.204,0.365-0.306,0.795-0.306,1.291c0,0.498,0.102,0.936,0.306,1.313
		c0.204,0.381,0.476,0.675,0.816,0.883s0.706,0.313,1.098,0.313c0.4,0,0.77-0.102,1.11-0.301s0.612-0.486,0.816-0.857
		c0.204-0.372,0.306-0.807,0.306-1.303s-0.102-0.93-0.306-1.303c-0.204-0.371-0.476-0.656-0.816-0.857
		c-0.34-0.199-0.71-0.299-1.11-0.299C22.061,18.076,21.694,18.172,21.355,18.363z"/>
	<path fill="#0088CC" d="M30.684,17.127v1.141h-0.288c-0.56,0-0.986,0.146-1.278,0.438c-0.292,0.293-0.438,0.799-0.438,1.52v3.6
		h-1.092v-6.588h1.092v1.117C29.072,17.537,29.74,17.127,30.684,17.127z"/>
	<path fill="#0088CC" d="M36.702,17.68c0.5,0.367,0.85,0.893,1.05,1.572h-1.176c-0.128-0.385-0.348-0.685-0.66-0.9
		s-0.696-0.324-1.152-0.324c-0.624,0-1.126,0.219-1.506,0.654c-0.38,0.436-0.57,1.055-0.57,1.854c0,0.793,0.19,1.405,0.57,1.842
		c0.38,0.438,0.882,0.654,1.506,0.654c0.464,0,0.848-0.104,1.152-0.313s0.524-0.514,0.66-0.912h1.176
		c-0.2,0.646-0.554,1.164-1.062,1.548c-0.508,0.386-1.15,0.576-1.926,0.576c-0.616,0-1.166-0.142-1.65-0.42
		c-0.484-0.279-0.862-0.679-1.134-1.193c-0.272-0.518-0.408-1.11-0.408-1.782c0-0.681,0.136-1.277,0.408-1.793
		c0.272-0.518,0.648-0.914,1.128-1.195c0.48-0.279,1.032-0.42,1.656-0.42C35.556,17.127,36.202,17.313,36.702,17.68z"/>
	<path fill="#0088CC" d="M43.734,17.445c0.388,0.213,0.696,0.528,0.924,0.948C44.887,18.814,45,19.324,45,19.924v3.9h-1.08v-3.722
		c0-0.664-0.16-1.168-0.48-1.513c-0.32-0.344-0.764-0.518-1.332-0.518c-0.56,0-1.002,0.174-1.326,0.518
		c-0.324,0.344-0.486,0.849-0.486,1.513v3.722h-1.092v-8.882h1.092v3.36c0.216-0.385,0.512-0.676,0.888-0.876
		c0.376-0.199,0.796-0.3,1.26-0.3C42.916,17.127,43.346,17.234,43.734,17.445z"/>
	<path fill="#0088CC" d="M46.704,22.623c0.136-0.135,0.3-0.203,0.492-0.203c0.192,0,0.356,0.068,0.492,0.203
		c0.136,0.138,0.204,0.306,0.204,0.504c0,0.192-0.068,0.356-0.204,0.492c-0.136,0.137-0.3,0.205-0.492,0.205
		c-0.192,0-0.356-0.068-0.492-0.205c-0.136-0.136-0.204-0.3-0.204-0.492C46.5,22.929,46.568,22.761,46.704,22.623z"/>
	<path fill="#0088CC" d="M49.416,22.623c0.136-0.135,0.3-0.203,0.492-0.203c0.192,0,0.356,0.068,0.492,0.203
		c0.136,0.138,0.204,0.306,0.204,0.504c0,0.192-0.068,0.356-0.204,0.492c-0.136,0.137-0.3,0.205-0.492,0.205
		c-0.192,0-0.356-0.068-0.492-0.205c-0.136-0.136-0.204-0.3-0.204-0.492C49.212,22.929,49.28,22.761,49.416,22.623z"/>
	<path fill="#0088CC" d="M52.128,22.623c0.136-0.135,0.3-0.203,0.492-0.203s0.356,0.068,0.492,0.203
		c0.136,0.138,0.204,0.306,0.204,0.504c0,0.192-0.068,0.356-0.204,0.492c-0.136,0.137-0.3,0.205-0.492,0.205
		s-0.356-0.068-0.492-0.205c-0.136-0.136-0.204-0.3-0.204-0.492C51.924,22.929,51.992,22.761,52.128,22.623z"/>
</g>
<path fill="#0088CC" d="M108.572,5.719l-3.16-3.16c0.711-0.947,1.139-2.119,1.139-3.392c0-3.125-2.543-5.667-5.668-5.667
	s-5.666,2.542-5.666,5.667c0,3.125,2.541,5.667,5.666,5.667c1.492,0,2.85-0.584,3.86-1.529l3.122,3.121L108.572,5.719z
	 M100.883,3.834c-2.571,0-4.666-2.094-4.666-4.667c0-2.573,2.095-4.667,4.666-4.667c2.573,0,4.668,2.094,4.668,4.667
	C105.551,1.741,103.456,3.834,100.883,3.834z"/>
<line fill="none" stroke="#0088CC" stroke-miterlimit="10" x1="0" y1="36.183" x2="140" y2="36.183"/>
<path fill="#0088CC" d="M96.741,17.215l0.151,0.189l4.857,4.856v3.952h11.2V14.262c0-0.446-0.149-0.865-0.443-1.243
	c-0.297-0.381-0.674-0.607-1.152-0.691l-5.561-1.23v-2.65c0-0.559-0.198-1.041-0.59-1.432c-0.396-0.396-0.865-0.589-1.432-0.589
	c-0.567,0-1.036,0.193-1.434,0.589c-0.391,0.392-0.589,0.874-0.589,1.432v7.854l-0.731-0.184l-0.025-0.031
	c-0.142-0.169-0.286-0.313-0.43-0.43c-0.568-0.426-1.266-0.643-2.069-0.643c-0.475,0-0.876,0.185-1.228,0.564
	c-0.354,0.382-0.525,0.829-0.525,1.368V17.215z M111.769,25.032h-8.837v-2.397h8.837V25.032z M98.013,16.754
	c0.048-0.486,0.322-0.56,0.481-0.56c0.56,0,1.035,0.128,1.411,0.379c0.171,0.167,0.267,0.294,0.31,0.399l0.143,0.18l0.233,0.077
	l1.602,0.4l0.739,0.222V8.447c0-0.55,0.291-0.84,0.841-0.84c0.542,0,0.84,0.298,0.84,0.84v3.615l0.442,0.11l6.078,1.251
	c0.418,0.104,0.636,0.394,0.636,0.838v7.192h-9.212l-0.036-0.037l-4.514-4.604L98.013,16.754z"/>
<polygon fill="#0088CC" points="136.354,21.926 133.865,19.437 136.354,16.948 135.646,16.241 133.158,18.729 130.67,16.241 
	129.963,16.948 132.451,19.437 129.962,21.926 130.669,22.633 133.158,20.144 135.647,22.633 "/>
</svg>
