<?xml version="1.0" encoding="utf-8"?>
<!-- Generator: Adobe Illustrator 16.0.0, SVG Export Plug-In . SVG Version: 6.00 Build 0)  -->
<!DOCTYPE svg PUBLIC "-//W3C//DTD SVG 1.1//EN" "http://www.w3.org/Graphics/SVG/1.1/DTD/svg11.dtd">
<svg version="1.1" id="Layer_1" xmlns="http://www.w3.org/2000/svg" xmlns:xlink="http://www.w3.org/1999/xlink" x="0px" y="0px"
	 width="160px" height="50px" viewBox="0 0 160 50" enable-background="new 0 0 160 50" xml:space="preserve">
<rect fill="#E4EFF2" width="160" height="50"/>
<rect x="10.104" y="16.76" display="none" fill="#AEC6CC" width="139.896" height="29.5"/>
<rect x="10.813" y="15.96" fill="#FFFFFF" width="138.375" height="29.5"/>
<path fill="#FFFFFF" stroke="#0088CC" stroke-miterlimit="10" d="M145.313,38.909c0,1.655-1.343,3-3,3H17.688c-1.657,0-3-1.345-3-3
	v-16c0-1.657,1.343-3,3-3h124.625c1.657,0,3,1.343,3,3V38.909z"/>
<g>
	<g>
		<path fill="#0088CC" d="M33.794,32.879c-0.179,0.305-0.445,0.555-0.797,0.744c-0.353,0.188-0.775,0.282-1.267,0.282
			c-0.439,0-0.834-0.069-1.187-0.214c-0.352-0.144-0.629-0.351-0.833-0.618c-0.203-0.271-0.304-0.593-0.304-0.964h0.967
			c0.027,0.313,0.151,0.563,0.374,0.759c0.223,0.192,0.55,0.289,0.982,0.289c0.445,0,0.798-0.112,1.057-0.339
			c0.259-0.228,0.389-0.517,0.389-0.865c0-0.27-0.073-0.479-0.219-0.637c-0.146-0.154-0.329-0.271-0.548-0.354
			c-0.22-0.08-0.512-0.16-0.878-0.238c-0.458-0.104-0.829-0.217-1.112-0.33c-0.283-0.11-0.521-0.295-0.718-0.547
			c-0.197-0.254-0.294-0.604-0.294-1.049c0-0.387,0.093-0.725,0.279-1.018s0.454-0.521,0.803-0.686
			c0.349-0.162,0.756-0.244,1.222-0.244c0.631,0,1.146,0.153,1.541,0.465c0.395,0.311,0.623,0.733,0.683,1.279h-1.007
			c-0.027-0.271-0.155-0.505-0.384-0.697c-0.23-0.191-0.538-0.287-0.923-0.287c-0.392,0-0.711,0.096-0.957,0.293
			c-0.246,0.195-0.369,0.481-0.369,0.861c0,0.271,0.073,0.487,0.219,0.646c0.146,0.159,0.328,0.278,0.543,0.358
			c0.215,0.08,0.517,0.162,0.903,0.248c0.452,0.105,0.817,0.215,1.097,0.324c0.279,0.109,0.517,0.289,0.713,0.535
			s0.294,0.584,0.294,1.018C34.064,32.246,33.975,32.572,33.794,32.879z"/>
	</g>
	<g>
		<path fill="#0088CC" d="M40.336,31.412h-4.358c0.026,0.545,0.198,0.979,0.514,1.291c0.316,0.314,0.719,0.475,1.211,0.475
			c0.372,0,0.687-0.084,0.942-0.25c0.256-0.166,0.444-0.387,0.563-0.658h0.977c-0.173,0.479-0.47,0.875-0.892,1.188
			s-0.952,0.472-1.591,0.472c-0.512,0-0.969-0.117-1.371-0.351c-0.402-0.231-0.716-0.563-0.942-0.992
			c-0.226-0.432-0.339-0.924-0.339-1.481c0-0.563,0.113-1.063,0.339-1.49c0.226-0.43,0.545-0.76,0.957-0.99
			c0.413-0.232,0.888-0.352,1.426-0.352c0.512,0,0.964,0.112,1.356,0.34c0.393,0.229,0.698,0.535,0.917,0.928
			c0.22,0.395,0.329,0.838,0.329,1.336C40.376,31.064,40.363,31.246,40.336,31.412z M39.43,30.754c0-0.354-0.076-0.66-0.229-0.922
			c-0.153-0.266-0.36-0.466-0.623-0.604c-0.263-0.141-0.553-0.209-0.873-0.209c-0.472,0-0.867,0.154-1.187,0.465
			c-0.319,0.31-0.496,0.73-0.528,1.271L39.43,30.754L39.43,30.754z"/>
	</g>
	<g>
		<path fill="#0088CC" d="M44.979,28.598c0.349,0.221,0.613,0.506,0.792,0.857v-1.098h0.917v5.479h-0.917v-1.117
			c-0.18,0.359-0.444,0.649-0.792,0.873c-0.349,0.225-0.756,0.334-1.222,0.334c-0.492,0-0.936-0.121-1.331-0.361
			c-0.396-0.244-0.708-0.584-0.938-1.02c-0.229-0.438-0.344-0.931-0.344-1.48c0-0.555,0.115-1.041,0.344-1.463
			c0.23-0.422,0.542-0.75,0.938-0.979c0.396-0.232,0.839-0.352,1.331-0.352C44.223,28.27,44.629,28.379,44.979,28.598z
			 M43.004,29.297c-0.283,0.16-0.508,0.391-0.678,0.692c-0.169,0.304-0.254,0.659-0.254,1.071s0.085,0.774,0.254,1.092
			c0.17,0.315,0.396,0.563,0.678,0.731c0.282,0.175,0.586,0.261,0.913,0.261c0.332,0,0.64-0.084,0.922-0.25
			c0.282-0.166,0.508-0.403,0.678-0.713c0.17-0.312,0.254-0.67,0.254-1.082s-0.084-0.771-0.254-1.084
			c-0.17-0.308-0.396-0.546-0.678-0.711c-0.283-0.166-0.59-0.25-0.922-0.25C43.59,29.057,43.287,29.139,43.004,29.297z"/>
	</g>
	<g>
		<path fill="#0088CC" d="M50.757,28.27v0.947h-0.239c-0.465,0-0.819,0.121-1.062,0.363c-0.243,0.244-0.364,0.664-0.364,1.264v2.992
			h-0.908v-5.477h0.907v0.928C49.417,28.607,49.973,28.27,50.757,28.27z"/>
	</g>
	<g>
		<path fill="#0088CC" d="M55.758,28.729c0.415,0.308,0.706,0.74,0.873,1.308h-0.977c-0.107-0.318-0.29-0.568-0.549-0.748
			c-0.259-0.183-0.578-0.271-0.957-0.271c-0.519,0-0.936,0.183-1.252,0.543c-0.315,0.361-0.474,0.875-0.474,1.541
			c0,0.658,0.158,1.168,0.474,1.529c0.316,0.363,0.733,0.543,1.252,0.543c0.385,0,0.704-0.086,0.957-0.258
			c0.252-0.174,0.436-0.428,0.549-0.758h0.977c-0.167,0.537-0.461,0.969-0.883,1.285c-0.422,0.318-0.956,0.479-1.6,0.479
			c-0.512,0-0.969-0.115-1.372-0.35c-0.402-0.23-0.716-0.563-0.942-0.992c-0.226-0.432-0.339-0.924-0.339-1.48
			c0-0.563,0.113-1.063,0.339-1.492c0.226-0.428,0.539-0.76,0.938-0.989c0.399-0.232,0.858-0.351,1.376-0.351
			C54.807,28.27,55.343,28.422,55.758,28.729z"/>
	</g>
	<g>
		<path fill="#0088CC" d="M61.603,28.535c0.322,0.176,0.578,0.438,0.768,0.787c0.189,0.35,0.284,0.771,0.284,1.271v3.242h-0.897
			v-3.093c0-0.555-0.133-0.973-0.399-1.258s-0.635-0.43-1.107-0.43c-0.465,0-0.833,0.145-1.102,0.43
			c-0.27,0.285-0.404,0.703-0.404,1.258v3.093h-0.908v-7.381h0.908v2.793c0.179-0.317,0.425-0.563,0.738-0.729
			s0.661-0.248,1.047-0.248C60.921,28.27,61.279,28.355,61.603,28.535z"/>
	</g>
	<g>
		<path fill="#0088CC" d="M64.069,32.838c0.113-0.111,0.25-0.168,0.409-0.168c0.16,0,0.296,0.057,0.409,0.168
			c0.113,0.112,0.169,0.252,0.169,0.418c0,0.162-0.056,0.297-0.169,0.41c-0.113,0.111-0.25,0.17-0.409,0.17
			c-0.159,0-0.296-0.059-0.409-0.17c-0.112-0.113-0.169-0.248-0.169-0.41C63.9,33.09,63.958,32.951,64.069,32.838z"/>
	</g>
	<g>
		<path fill="#0088CC" d="M66.323,32.838c0.113-0.111,0.25-0.168,0.409-0.168c0.159,0,0.295,0.057,0.409,0.168
			c0.113,0.112,0.169,0.252,0.169,0.418c0,0.162-0.057,0.297-0.169,0.41c-0.113,0.111-0.25,0.17-0.409,0.17
			c-0.16,0-0.296-0.059-0.409-0.17c-0.113-0.113-0.169-0.248-0.169-0.41C66.153,33.09,66.21,32.951,66.323,32.838z"/>
	</g>
	<g>
		<path fill="#0088CC" d="M68.578,32.838c0.113-0.111,0.25-0.168,0.409-0.168c0.159,0,0.296,0.057,0.409,0.168
			c0.112,0.112,0.169,0.252,0.169,0.418c0,0.162-0.057,0.297-0.169,0.41c-0.113,0.111-0.25,0.17-0.409,0.17
			c-0.16,0-0.296-0.059-0.409-0.17c-0.113-0.113-0.169-0.248-0.169-0.41C68.409,33.09,68.464,32.951,68.578,32.838z"/>
	</g>
</g>
<g>
	<path fill="#0088CC" d="M132.123,35.128l-2.313-2.315c0.521-0.694,0.834-1.557,0.834-2.486c0-2.291-1.864-4.155-4.155-4.155
		s-4.152,1.864-4.152,4.155s1.861,4.156,4.152,4.156c1.098,0,2.09-0.43,2.831-1.123l2.287,2.291L132.123,35.128z M126.484,33.746
		c-1.885,0-3.42-1.535-3.42-3.423s1.535-3.423,3.42-3.423c1.889,0,3.423,1.535,3.423,3.423S128.373,33.746,126.484,33.746z"/>
</g>
<g>
	<path fill="#0088CC" d="M31.734,10.958L29.42,8.642c0.521-0.695,0.834-1.556,0.834-2.487C30.254,3.864,28.39,2,26.099,2
		s-4.153,1.864-4.153,4.155s1.862,4.157,4.153,4.157c1.097,0,2.089-0.43,2.831-1.123l2.288,2.291L31.734,10.958z M26.098,9.577
		c-1.886,0-3.421-1.535-3.421-3.423c0-1.887,1.535-3.422,3.421-3.422c1.888,0,3.422,1.535,3.422,3.422
		C29.52,8.041,27.984,9.577,26.098,9.577z"/>
</g>
<line fill="none" stroke="#0088CC" stroke-width="0.75" stroke-linecap="round" stroke-miterlimit="10" x1="34.05" y1="8.725" x2="36.712" y2="9.142"/>
<line fill="none" stroke="#0088CC" stroke-width="0.75" stroke-linecap="round" stroke-miterlimit="10" x1="39.021" y1="9.725" x2="41.938" y2="10.642"/>
<line fill="none" stroke="#0088CC" stroke-width="0.75" stroke-linecap="round" stroke-miterlimit="10" x1="44.177" y1="11.573" x2="46.927" y2="12.99"/>
<line fill="none" stroke="#0088CC" stroke-width="0.75" stroke-linecap="round" stroke-miterlimit="10" x1="48.625" y1="14.361" x2="51.708" y2="17.251"/>
<line fill="none" stroke="#0088CC" stroke-width="0.75" stroke-linecap="round" stroke-miterlimit="10" x1="51.708" y1="17.251" x2="51.708" y2="14.958"/>
<line fill="none" stroke="#0088CC" stroke-width="0.75" stroke-linecap="round" stroke-miterlimit="10" x1="51.708" y1="17.251" x2="49.104" y2="17.024"/>
</svg>
