<?xml version="1.0" encoding="utf-8"?>
<!-- Generator: Adobe Illustrator 16.0.0, SVG Export Plug-In . SVG Version: 6.00 Build 0)  -->
<!DOCTYPE svg PUBLIC "-//W3C//DTD SVG 1.1//EN" "http://www.w3.org/Graphics/SVG/1.1/DTD/svg11.dtd">
<svg version="1.1" id="Layer_1" xmlns="http://www.w3.org/2000/svg" xmlns:xlink="http://www.w3.org/1999/xlink" x="0px" y="0px"
	 width="160px" height="50px" viewBox="0 0 160 50" enable-background="new 0 0 160 50" xml:space="preserve">
<rect x="0" fill="#E4EFF2" width="160" height="50"/>
<path fill="#FFFFFF" stroke="#0088CC" stroke-miterlimit="10" d="M135.891,19.185H39.763l-5.944-5.944l-5.944,5.944H24.11
	c-7.343,0-13.297,5.953-13.297,13.297c0,7.346,5.954,13.298,13.297,13.298h111.781c7.344,0,13.297-5.953,13.297-13.298
	C149.188,25.137,143.232,19.185,135.891,19.185z"/>
<g>
	<g>
		<path fill="#0088CC" d="M27.271,35.452c-0.216,0.366-0.536,0.666-0.96,0.896c-0.424,0.229-0.932,0.344-1.524,0.344
			c-0.528,0-1.004-0.086-1.428-0.26c-0.424-0.173-0.758-0.421-1.002-0.742c-0.244-0.324-0.366-0.711-0.366-1.157h1.164
			c0.032,0.374,0.182,0.68,0.45,0.911c0.268,0.229,0.662,0.349,1.182,0.349c0.536,0,0.96-0.138,1.272-0.407
			c0.312-0.269,0.468-0.619,0.468-1.043c0-0.32-0.088-0.576-0.264-0.765c-0.176-0.188-0.396-0.33-0.66-0.427
			c-0.264-0.096-0.616-0.19-1.056-0.289c-0.552-0.127-0.998-0.26-1.338-0.396c-0.34-0.138-0.628-0.356-0.864-0.659
			c-0.236-0.306-0.354-0.727-0.354-1.261c0-0.466,0.112-0.873,0.336-1.228c0.224-0.354,0.546-0.625,0.966-0.819
			s0.91-0.294,1.47-0.294c0.76,0,1.378,0.188,1.854,0.559c0.476,0.372,0.75,0.887,0.822,1.543h-1.212
			c-0.032-0.328-0.186-0.606-0.462-0.841c-0.276-0.231-0.646-0.351-1.11-0.351c-0.472,0-0.856,0.117-1.152,0.354
			c-0.296,0.235-0.444,0.582-0.444,1.037c0,0.328,0.088,0.588,0.264,0.78c0.176,0.188,0.394,0.336,0.654,0.433
			c0.26,0.098,0.622,0.195,1.086,0.301c0.544,0.129,0.984,0.258,1.32,0.393c0.336,0.132,0.622,0.347,0.858,0.645
			c0.236,0.295,0.354,0.702,0.354,1.226C27.596,34.693,27.486,35.085,27.271,35.452z"/>
	</g>
	<g>
		<path fill="#0088CC" d="M35.144,33.689H29.9c0.032,0.654,0.238,1.172,0.618,1.552c0.38,0.383,0.866,0.569,1.458,0.569
			c0.448,0,0.826-0.1,1.134-0.299c0.308-0.201,0.534-0.465,0.678-0.793h1.176c-0.208,0.576-0.566,1.053-1.074,1.428
			c-0.508,0.377-1.146,0.564-1.914,0.564c-0.616,0-1.166-0.143-1.65-0.421c-0.484-0.278-0.862-0.679-1.134-1.192
			c-0.272-0.519-0.408-1.109-0.408-1.781c0-0.684,0.136-1.277,0.408-1.797c0.272-0.516,0.656-0.912,1.152-1.191
			c0.496-0.278,1.068-0.42,1.716-0.42c0.616,0,1.16,0.138,1.632,0.406c0.472,0.271,0.84,0.646,1.104,1.115
			c0.264,0.475,0.396,1.01,0.396,1.606C35.19,33.273,35.174,33.488,35.144,33.689z M34.05,32.896c0-0.426-0.092-0.795-0.276-1.109
			s-0.434-0.561-0.75-0.729s-0.666-0.252-1.05-0.252c-0.568,0-1.044,0.188-1.428,0.561c-0.384,0.371-0.596,0.883-0.636,1.529H34.05z
			"/>
	</g>
	<g>
		<path fill="#0088CC" d="M40.729,30.305c0.42,0.264,0.738,0.605,0.954,1.03v-1.319h1.104v6.59h-1.104v-1.345
			c-0.216,0.433-0.534,0.78-0.954,1.05c-0.42,0.271-0.91,0.401-1.47,0.401c-0.592,0-1.126-0.146-1.604-0.438
			c-0.476-0.293-0.853-0.7-1.128-1.228c-0.276-0.521-0.414-1.116-0.414-1.78c0-0.666,0.138-1.252,0.414-1.761
			c0.276-0.508,0.652-0.899,1.128-1.185c0.476-0.276,1.01-0.42,1.604-0.42C39.818,29.906,40.31,30.039,40.729,30.305z
			 M38.354,31.145c-0.34,0.19-0.612,0.472-0.816,0.834s-0.306,0.795-0.306,1.291s0.102,0.935,0.306,1.313
			c0.204,0.381,0.476,0.676,0.816,0.883c0.34,0.209,0.706,0.313,1.098,0.313c0.4,0,0.77-0.103,1.11-0.301
			c0.34-0.199,0.612-0.485,0.816-0.857c0.204-0.373,0.306-0.807,0.306-1.303s-0.102-0.933-0.306-1.303
			c-0.204-0.373-0.477-0.658-0.816-0.859c-0.34-0.197-0.71-0.299-1.11-0.299C39.06,30.855,38.692,30.949,38.354,31.145z"/>
	</g>
	<g>
		<path fill="#0088CC" d="M47.683,29.906v1.142h-0.288c-0.56,0-0.986,0.146-1.278,0.438c-0.292,0.291-0.438,0.799-0.438,1.521v3.603
			h-1.092v-6.592h1.092v1.116C46.07,30.316,46.738,29.906,47.683,29.906z"/>
	</g>
	<g>
		<path fill="#0088CC" d="M53.701,30.459c0.5,0.367,0.85,0.893,1.05,1.57h-1.176c-0.128-0.385-0.348-0.686-0.66-0.897
			c-0.312-0.216-0.696-0.323-1.152-0.323c-0.624,0-1.126,0.217-1.506,0.653c-0.38,0.437-0.57,1.054-0.57,1.854
			c0,0.793,0.19,1.404,0.57,1.841c0.38,0.438,0.882,0.653,1.506,0.653c0.464,0,0.848-0.104,1.152-0.313
			c0.304-0.209,0.524-0.514,0.66-0.912h1.176c-0.2,0.646-0.554,1.164-1.062,1.547c-0.508,0.387-1.15,0.576-1.926,0.576
			c-0.616,0-1.166-0.141-1.65-0.42c-0.484-0.279-0.862-0.678-1.134-1.193c-0.272-0.519-0.408-1.109-0.408-1.781
			c0-0.682,0.136-1.277,0.408-1.795s0.648-0.914,1.128-1.193c0.48-0.278,1.032-0.42,1.656-0.42
			C52.555,29.906,53.201,30.091,53.701,30.459z"/>
	</g>
	<g>
		<path fill="#0088CC" d="M60.732,30.227c0.388,0.211,0.696,0.526,0.924,0.946s0.342,0.931,0.342,1.53v3.9h-1.08v-3.723
			c0-0.664-0.16-1.168-0.48-1.513c-0.32-0.347-0.764-0.519-1.332-0.519c-0.56,0-1.002,0.172-1.326,0.519
			c-0.324,0.345-0.486,0.849-0.486,1.513v3.723h-1.092v-8.881h1.092v3.358c0.216-0.386,0.512-0.679,0.888-0.877
			c0.376-0.199,0.796-0.302,1.26-0.302C59.915,29.906,60.345,30.014,60.732,30.227z"/>
	</g>
	<g>
		<path fill="#0088CC" d="M63.703,35.402c0.136-0.135,0.3-0.202,0.492-0.202c0.192,0,0.356,0.067,0.492,0.202
			c0.136,0.139,0.204,0.307,0.204,0.505c0,0.192-0.068,0.356-0.204,0.491c-0.136,0.138-0.3,0.205-0.492,0.205
			s-0.356-0.067-0.492-0.205c-0.136-0.135-0.204-0.299-0.204-0.491C63.499,35.708,63.566,35.54,63.703,35.402z"/>
	</g>
	<g>
		<path fill="#0088CC" d="M66.415,35.402c0.136-0.135,0.3-0.202,0.492-0.202c0.192,0,0.356,0.067,0.492,0.202
			c0.136,0.139,0.204,0.307,0.204,0.505c0,0.192-0.068,0.356-0.204,0.491c-0.136,0.138-0.3,0.205-0.492,0.205
			c-0.192,0-0.356-0.067-0.492-0.205c-0.136-0.135-0.204-0.299-0.204-0.491C66.21,35.708,66.278,35.54,66.415,35.402z"/>
	</g>
	<g>
		<path fill="#0088CC" d="M69.126,35.402c0.136-0.135,0.3-0.202,0.492-0.202c0.192,0,0.356,0.067,0.492,0.202
			c0.136,0.139,0.204,0.307,0.204,0.505c0,0.192-0.068,0.356-0.204,0.491c-0.136,0.138-0.3,0.205-0.492,0.205
			c-0.192,0-0.356-0.067-0.492-0.205c-0.136-0.135-0.204-0.299-0.204-0.491C68.922,35.708,68.99,35.54,69.126,35.402z"/>
	</g>
</g>
<g>
	<path fill="#0088CC" d="M136.438,37.975l-3.16-3.16c0.712-0.946,1.14-2.119,1.14-3.394c0-3.125-2.543-5.666-5.668-5.666
		s-5.666,2.541-5.666,5.666s2.541,5.668,5.666,5.668c1.492,0,2.851-0.584,3.86-1.528l3.121,3.121L136.438,37.975z M128.748,36.089
		c-2.57,0-4.666-2.093-4.666-4.666s2.096-4.668,4.666-4.668c2.572,0,4.668,2.095,4.668,4.668
		C133.416,33.994,131.32,36.089,128.748,36.089z"/>
</g>
<g>
	<path fill="#0088CC" d="M72.498,11.363l-2.315-2.317c0.521-0.695,0.834-1.556,0.834-2.487c0-2.291-1.864-4.155-4.155-4.155
		s-4.153,1.864-4.153,4.155s1.862,4.157,4.153,4.157c1.097,0,2.089-0.43,2.831-1.123l2.288,2.291L72.498,11.363z M66.859,9.981
		c-1.886,0-3.421-1.535-3.421-3.423c0-1.887,1.535-3.422,3.421-3.422c1.888,0,3.422,1.535,3.422,3.422
		C70.281,8.446,68.748,9.981,66.859,9.981z"/>
</g>
<g>
	<path fill="#0088CC" d="M57.291,6.73l2.453-0.417c0.19-0.031,0.366,0.108,0.396,0.313c0.029,0.205-0.1,0.396-0.288,0.429
		l-2.454,0.417c-0.018,0.003-0.036,0.004-0.054,0.004c-0.167,0-0.313-0.132-0.341-0.316C56.974,6.954,57.103,6.762,57.291,6.73z"/>
	<path fill="#0088CC" d="M52.424,8.243l2.688-0.917c0.183-0.063,0.376,0.048,0.433,0.246c0.057,0.197-0.044,0.408-0.226,0.47
		l-2.688,0.917c-0.034,0.012-0.069,0.017-0.104,0.017c-0.147,0-0.283-0.103-0.33-0.263C52.142,8.515,52.243,8.304,52.424,8.243z"/>
	<path fill="#0088CC" d="M47.772,10.614l2.534-1.417c0.172-0.095,0.378-0.021,0.466,0.162c0.087,0.184,0.021,0.41-0.149,0.505
		l-2.534,1.417c-0.051,0.028-0.105,0.042-0.158,0.042c-0.125,0-0.246-0.074-0.308-0.203C47.537,10.936,47.604,10.71,47.772,10.614z"
		/>
	<path fill="#0088CC" d="M43.178,12.917c0-0.207,0.155-0.375,0.346-0.375c0.19,0,0.346,0.168,0.346,0.375v1.428l2.26-2.298
		c0.139-0.142,0.358-0.134,0.488,0.017c0.131,0.151,0.124,0.388-0.016,0.53l-2.113,2.149l1.406-0.133
		c0.189-0.017,0.357,0.135,0.374,0.341c0.017,0.207-0.124,0.388-0.314,0.406l-2.401,0.227c-0.011,0.001-0.021,0.001-0.03,0.001l0,0
		l0,0l0,0l0,0c-0.048,0-0.093-0.011-0.134-0.029c-0.001-0.001-0.001-0.002-0.003-0.003c-0.032-0.015-0.058-0.037-0.084-0.062
		c-0.004-0.004-0.009-0.005-0.013-0.01c-0.004-0.004-0.009-0.007-0.013-0.012c-0.003-0.001-0.004-0.001-0.005-0.002
		c-0.002-0.003-0.001-0.006-0.003-0.009c-0.045-0.054-0.072-0.122-0.082-0.198c0-0.007-0.007-0.01-0.008-0.018
		c0-0.005,0.001-0.011,0.001-0.016c0-0.006-0.003-0.011-0.003-0.017L43.178,12.917L43.178,12.917z"/>
</g>
</svg>
