<?xml version="1.0" encoding="utf-8"?>
<!-- Generator: Adobe Illustrator 16.0.0, SVG Export Plug-In . SVG Version: 6.00 Build 0)  -->
<!DOCTYPE svg PUBLIC "-//W3C//DTD SVG 1.1//EN" "http://www.w3.org/Graphics/SVG/1.1/DTD/svg11.dtd">
<svg version="1.1" id="Layer_1" xmlns="http://www.w3.org/2000/svg" xmlns:xlink="http://www.w3.org/1999/xlink" x="0px" y="0px"
	 width="70px" height="70px" viewBox="0 0 70 70" enable-background="new 0 0 70 70" xml:space="preserve">
<path fill="none" stroke="#0B88CA" stroke-miterlimit="10" d="M69.426,66.195c0,1.656-1.343,3-3,3H3.574c-1.656,0-3-1.344-3-3V3.805
	c0-1.657,1.344-3,3-3h62.852c1.657,0,3,1.343,3,3V66.195z"/>
<rect x="4.75" y="8.375" fill="none" stroke="#0088CC" stroke-miterlimit="10" width="18.125" height="6.875"/>
<rect x="25.935" y="8.375" fill="none" stroke="#0088CC" stroke-miterlimit="10" width="18.125" height="6.875"/>
<rect x="47.125" y="8.375" fill="none" stroke="#0088CC" stroke-miterlimit="10" width="18.125" height="6.875"/>
<rect x="14.938" y="18.25" fill="none" stroke="#0088CC" stroke-miterlimit="10" width="29.125" height="32.75"/>
<line fill="none" stroke="#0088CC" stroke-miterlimit="10" x1="14.938" y1="23.875" x2="44.063" y2="23.875"/>
<line fill="none" stroke="#0088CC" stroke-miterlimit="10" x1="19.625" y1="29.375" x2="33.938" y2="29.375"/>
<line fill="none" stroke="#0088CC" stroke-miterlimit="10" x1="19.625" y1="33.325" x2="36.438" y2="33.325"/>
<line fill="none" stroke="#0088CC" stroke-miterlimit="10" x1="19.625" y1="37.275" x2="33.938" y2="37.275"/>
<line fill="none" stroke="#0088CC" stroke-miterlimit="10" x1="19.625" y1="41.225" x2="37.75" y2="41.225"/>
<line fill="none" stroke="#0088CC" stroke-miterlimit="10" x1="19.625" y1="45.175" x2="33.938" y2="45.175"/>
<polyline fill="none" stroke="#0088CC" stroke-miterlimit="10" points="40.965,10.853 39.02,12.782 37.03,10.842 "/>
</svg>
