<?xml version="1.0" encoding="utf-8"?>
<!-- Generator: Adobe Illustrator 16.0.0, SVG Export Plug-In . SVG Version: 6.00 Build 0)  -->
<!DOCTYPE svg PUBLIC "-//W3C//DTD SVG 1.1//EN" "http://www.w3.org/Graphics/SVG/1.1/DTD/svg11.dtd">
<svg version="1.1" id="Layer_1" xmlns="http://www.w3.org/2000/svg" xmlns:xlink="http://www.w3.org/1999/xlink" x="0px" y="0px"
	 width="70px" height="70px" viewBox="0 0 70 70" enable-background="new 0 0 70 70" xml:space="preserve">
<path fill="none" stroke="#0B88CA" stroke-miterlimit="10" d="M69.426,66.195c0,1.656-1.343,3-3,3H3.574c-1.656,0-3-1.344-3-3V3.805
	c0-1.657,1.344-3,3-3h62.852c1.657,0,3,1.343,3,3V66.195z"/>
<line fill="none" stroke="#0088CC" stroke-miterlimit="10" x1="20.167" y1="0.805" x2="20.167" y2="70"/>
<line fill="none" stroke="#0088CC" stroke-miterlimit="10" x1="20.167" y1="12.89" x2="69.084" y2="12.89"/>
<rect x="27.667" y="21.25" fill="none" stroke="#0088CC" stroke-miterlimit="10" width="13" height="4.417"/>
<line fill="none" stroke="#0088CC" stroke-miterlimit="10" x1="1.082" y1="8.709" x2="19.757" y2="8.709"/>
<line fill="none" stroke="#0088CC" stroke-miterlimit="10" x1="5.736" y1="14.876" x2="12.375" y2="14.876"/>
<line fill="none" stroke="#0088CC" stroke-miterlimit="10" x1="5.736" y1="20.426" x2="13.533" y2="20.426"/>
<line fill="none" stroke="#0088CC" stroke-miterlimit="10" x1="5.736" y1="25.976" x2="12.375" y2="25.976"/>
<line fill="none" stroke="#0088CC" stroke-miterlimit="10" x1="5.736" y1="31.526" x2="14.142" y2="31.526"/>
<line fill="none" stroke="#0088CC" stroke-miterlimit="10" x1="5.736" y1="37.076" x2="12.375" y2="37.076"/>
<line fill="none" stroke="#0088CC" stroke-miterlimit="10" x1="5.736" y1="42.625" x2="13.533" y2="42.625"/>
</svg>
