<?xml version="1.0" encoding="utf-8"?>
<!-- Generator: Adobe Illustrator 16.0.0, SVG Export Plug-In . SVG Version: 6.00 Build 0)  -->
<!DOCTYPE svg PUBLIC "-//W3C//DTD SVG 1.1//EN" "http://www.w3.org/Graphics/SVG/1.1/DTD/svg11.dtd">
<svg version="1.1" id="Layer_1" xmlns="http://www.w3.org/2000/svg" xmlns:xlink="http://www.w3.org/1999/xlink" x="0px" y="0px"
	 width="70px" height="70px" viewBox="0 0 70 70" enable-background="new 0 0 70 70" xml:space="preserve">
<path fill="none" stroke="#0B88CA" stroke-miterlimit="10" d="M69.426,66.195c0,1.656-1.343,3-3,3H3.574c-1.656,0-3-1.344-3-3V3.805
	c0-1.657,1.344-3,3-3h62.852c1.657,0,3,1.343,3,3V66.195z"/>
<line fill="none" stroke="#0088CC" stroke-miterlimit="10" x1="10.574" y1="18.958" x2="29.25" y2="18.958"/>
<line fill="none" stroke="#0088CC" stroke-miterlimit="10" x1="15.229" y1="25.125" x2="21.867" y2="25.125"/>
<line fill="none" stroke="#0088CC" stroke-miterlimit="10" x1="15.229" y1="30.675" x2="23.026" y2="30.675"/>
<line fill="none" stroke="#0088CC" stroke-miterlimit="10" x1="15.229" y1="36.225" x2="21.867" y2="36.225"/>
<line fill="none" stroke="#0088CC" stroke-miterlimit="10" x1="15.229" y1="41.775" x2="23.635" y2="41.775"/>
<line fill="none" stroke="#0088CC" stroke-miterlimit="10" x1="15.229" y1="47.325" x2="21.867" y2="47.325"/>
<line fill="none" stroke="#0088CC" stroke-miterlimit="10" x1="15.229" y1="52.875" x2="23.026" y2="52.875"/>
<line fill="none" stroke="#0088CC" stroke-miterlimit="10" x1="0.574" y1="13" x2="69.426" y2="13"/>
<line fill="none" stroke="#0088CC" stroke-miterlimit="10" x1="29.25" y1="12.667" x2="29.25" y2="69.195"/>
<line fill="none" stroke="#0088CC" stroke-miterlimit="10" x1="10.574" y1="12.667" x2="10.574" y2="69.195"/>
<path fill="none" stroke="#0088CC" stroke-miterlimit="10" d="M52.229,22.5c0,1.45-1.175,2.625-2.625,2.625H38.479
	c-1.45,0-2.625-1.175-2.625-2.625l0,0c0-1.45,1.175-2.625,2.625-2.625h11.125C51.055,19.875,52.229,21.05,52.229,22.5L52.229,22.5z"
	/>
<path fill="#0088CC" stroke="#0088CC" stroke-miterlimit="10" d="M52.229,22.5c0,1.45-1.175,2.625-2.625,2.625h-2.938
	c-1.451,0-2.625-1.175-2.625-2.625l0,0c0-1.45,1.174-2.625,2.625-2.625h2.938C51.055,19.875,52.229,21.05,52.229,22.5L52.229,22.5z"
	/>
</svg>
