<?xml version="1.0" encoding="utf-8"?>
<!-- Generator: Adobe Illustrator 16.0.0, SVG Export Plug-In . SVG Version: 6.00 Build 0)  -->
<!DOCTYPE svg PUBLIC "-//W3C//DTD SVG 1.1//EN" "http://www.w3.org/Graphics/SVG/1.1/DTD/svg11.dtd">
<svg version="1.1" id="Layer_1" xmlns="http://www.w3.org/2000/svg" xmlns:xlink="http://www.w3.org/1999/xlink" x="0px" y="0px"
	 width="70px" height="70px" viewBox="0 0 70 70" enable-background="new 0 0 70 70" xml:space="preserve">
<path fill="none" stroke="#0B88CA" stroke-miterlimit="10" d="M69.426,66.195c0,1.656-1.343,3-3,3H3.574c-1.656,0-3-1.344-3-3V3.805
	c0-1.657,1.344-3,3-3h62.852c1.657,0,3,1.343,3,3V66.195z"/>
<line fill="none" stroke="#0B88CA" stroke-miterlimit="10" x1="0.574" y1="21" x2="69.426" y2="21"/>
<rect x="53.917" y="9.413" fill="none" stroke="#0B88CA" stroke-miterlimit="10" width="11.75" height="5"/>
<polygon fill="#0088CC" points="14.667,10.428 15.149,11.406 16.228,11.563 15.448,12.323 15.632,13.398 14.667,12.891 
	13.702,13.398 13.886,12.323 13.106,11.563 14.185,11.406 "/>
<polygon fill="#0088CC" points="18.962,10.428 19.445,11.406 20.523,11.563 19.743,12.323 19.927,13.398 18.962,12.891 
	17.998,13.398 18.182,12.323 17.401,11.563 18.48,11.406 "/>
<polygon fill="#0088CC" points="23.257,10.428 23.74,11.406 24.818,11.563 24.038,12.323 24.222,13.398 23.257,12.891 
	22.292,13.398 22.477,12.323 21.696,11.563 22.775,11.406 "/>
<polygon fill="#0088CC" points="27.553,10.428 28.035,11.406 29.114,11.563 28.333,12.323 28.518,13.398 27.553,12.891 
	26.588,13.398 26.772,12.323 25.992,11.563 27.07,11.406 "/>
<rect x="3.667" y="9.862" fill="none" stroke="#0B88CA" stroke-miterlimit="10" width="6.167" height="4.103"/>
<g>
	<path fill="#0B88CA" d="M42.932,11.807v0.26h-1.765v-0.26H42.932z"/>
	<path fill="#0B88CA" d="M44.843,10.729h-0.008l-0.452,0.244l-0.066-0.268l0.566-0.304h0.301V13h-0.341V10.729z"/>
	<path fill="#0B88CA" d="M48.118,10.873v0.939h0.903v0.24h-0.903V13h-0.257v-0.947h-0.902v-0.24h0.902v-0.939L48.118,10.873
		L48.118,10.873z"/>
</g>
</svg>
