<?xml version="1.0" encoding="utf-8"?>
<!-- Generator: Adobe Illustrator 16.0.0, SVG Export Plug-In . SVG Version: 6.00 Build 0)  -->
<!DOCTYPE svg PUBLIC "-//W3C//DTD SVG 1.1//EN" "http://www.w3.org/Graphics/SVG/1.1/DTD/svg11.dtd">
<svg version="1.1" id="Layer_1" xmlns="http://www.w3.org/2000/svg" xmlns:xlink="http://www.w3.org/1999/xlink" x="0px" y="0px"
	 width="70px" height="70px" viewBox="0 0 70 70" enable-background="new 0 0 70 70" xml:space="preserve">
<path fill="none" stroke="#0B88CA" stroke-miterlimit="10" d="M69.426,66.195c0,1.657-1.343,3-3,3H3.574c-1.656,0-3-1.343-3-3V3.805
	c0-1.657,1.344-3,3-3h62.852c1.657,0,3,1.343,3,3V66.195z"/>
<line fill="none" stroke="#0B88CA" stroke-miterlimit="10" x1="0.574" y1="49.334" x2="69.426" y2="49.334"/>
<rect x="53.917" y="56.413" fill="none" stroke="#0B88CA" stroke-miterlimit="10" width="11.75" height="5"/>
<polygon fill="#0B88CA" points="14.667,57.428 15.149,58.406 16.228,58.563 15.448,59.323 15.632,60.398 14.667,59.891 
	13.702,60.398 13.886,59.323 13.106,58.563 14.185,58.406 "/>
<polygon fill="#0B88CA" points="18.962,57.428 19.445,58.406 20.523,58.563 19.743,59.323 19.927,60.398 18.962,59.891 
	17.998,60.398 18.182,59.323 17.401,58.563 18.48,58.406 "/>
<polygon fill="#0B88CA" points="23.257,57.428 23.74,58.406 24.818,58.563 24.038,59.323 24.222,60.398 23.257,59.891 
	22.292,60.398 22.477,59.323 21.696,58.563 22.775,58.406 "/>
<polygon fill="#0B88CA" points="27.553,57.428 28.035,58.406 29.114,58.563 28.333,59.323 28.518,60.398 27.553,59.891 
	26.588,60.398 26.772,59.323 25.992,58.563 27.07,58.406 "/>
<rect x="3.667" y="56.861" fill="none" stroke="#0B88CA" stroke-miterlimit="10" width="6.167" height="4.104"/>
<g>
	<path fill="#0B88CA" d="M42.931,58.807v0.26h-1.764v-0.26H42.931z"/>
	<path fill="#0B88CA" d="M44.843,57.729h-0.008l-0.452,0.243l-0.067-0.268l0.567-0.304h0.3V60h-0.34V57.729z"/>
	<path fill="#0B88CA" d="M48.118,57.873v0.939h0.903v0.24h-0.903V60h-0.256v-0.947h-0.903v-0.24h0.903v-0.939H48.118z"/>
</g>
</svg>
